<svg width="186" height="42" viewBox="0 0 186 42" fill="none" xmlns="http://www.w3.org/2000/svg">
<g clip-path="url(#clip0_247_2475)">
<path d="M47.8813 32.345V10.2283H58.2266C60.7954 10.2283 62.737 10.8805 64.0514 12.185C65.067 13.193 65.5748 14.4678 65.5748 16.0094C65.5748 18.0946 64.599 19.6857 62.6474 20.7826C64.0314 21.3064 65.067 21.9982 65.764 22.848C66.4609 23.6979 66.8094 24.8443 66.8094 26.2772C66.8094 28.2537 66.0627 29.7657 64.5791 30.7934C63.0955 31.8212 61.0543 32.345 58.4655 32.345H47.8813ZM52.6507 19.1718H57.1711C59.5309 19.1718 60.7058 18.3713 60.7058 16.7704C60.7058 16.0292 60.427 15.4659 59.8794 15.0805C59.3318 14.6951 58.5352 14.4974 57.4897 14.4974H52.6507V19.1718ZM52.6507 28.0758H58.4755C60.7855 28.0758 61.9405 27.2556 61.9405 25.6151C61.9405 24.0142 60.7357 23.2137 58.3162 23.2137H52.6507V28.0758Z" fill="white"/>
<path d="M70.5732 32.345V14.0824C70.5732 11.4339 72.7438 9.27954 75.4123 9.27954V32.345H70.5732Z" fill="white"/>
<path d="M85.6281 32.6611C83.8059 32.6611 82.3821 32.1077 81.3665 30.991C80.3509 29.8743 79.8431 28.3326 79.8431 26.3759V20.2093C79.8431 17.5608 82.0137 15.4065 84.6822 15.4065V24.854C84.6822 25.9707 84.941 26.8206 85.4488 27.4136C85.9566 28.0065 86.6835 28.303 87.6095 28.303C88.5355 28.303 89.2823 28.0065 89.8199 27.4136C90.3576 26.8206 90.6364 25.9707 90.6364 24.854V20.2093C90.6364 17.5608 92.807 15.4065 95.4755 15.4065V32.3448H90.6364V29.9434C89.2026 31.7519 87.5398 32.6611 85.6281 32.6611Z" fill="white"/>
<path d="M107.882 32.7205C105.293 32.7205 103.162 31.9002 101.48 30.2696C99.8068 28.639 98.9604 26.5143 98.9604 23.9054C98.9604 21.4447 99.757 19.3595 101.35 17.6499C102.943 15.9402 104.954 15.0903 107.394 15.0903C110.092 15.0903 112.143 15.9797 113.567 17.7487C114.991 19.5176 115.698 21.7016 115.698 24.2908C115.698 24.5477 115.678 24.9628 115.638 25.5557H103.77C103.999 26.6329 104.477 27.4532 105.203 28.0164C105.92 28.5896 106.836 28.8663 107.942 28.8663C108.579 28.8663 109.206 28.7576 109.804 28.5501C111.476 27.9572 113.338 28.2437 114.672 29.4099L114.852 29.568C113.129 31.6729 110.809 32.7205 107.882 32.7205ZM103.71 22.5515H110.998C110.849 21.4546 110.461 20.5849 109.833 19.9327C109.206 19.2804 108.4 18.9543 107.394 18.9543C106.418 18.9543 105.602 19.2805 104.954 19.9228C104.307 20.5652 103.899 21.4348 103.71 22.5515Z" fill="white"/>
<path d="M119.143 32.345V28.649L131.4 14.4974H119.531C119.531 12.1356 121.453 10.2283 123.833 10.2283H137.713V13.9243L125.456 28.0758H133.411C135.791 28.0758 137.713 29.9831 137.713 32.345H119.143Z" fill="white"/>
<path d="M141.935 13.5487V9.27954H147.033V13.5487H141.935ZM142.064 32.345V15.4066H146.903V32.345H142.064Z" fill="white"/>
<path d="M151.682 32.345V14.0824C151.682 11.4339 153.853 9.27954 156.521 9.27954V32.345H151.682Z" fill="white"/>
<path d="M161.291 32.345V14.0824C161.291 11.4339 163.462 9.27954 166.13 9.27954V32.345H161.291Z" fill="white"/>
<path d="M175.519 32.6612C173.847 32.6612 172.443 32.1968 171.337 31.2678C170.232 30.3389 169.665 29.0542 169.665 27.4137C169.665 25.625 170.282 24.2711 171.527 23.3718C172.771 22.4725 174.444 22.0179 176.545 22.0179C177.969 22.0179 179.373 22.2452 180.717 22.7097V22.4231C180.717 20.3577 179.492 19.3299 177.053 19.3299C175.589 19.3299 174.016 19.6363 172.343 20.249C171.616 18.0551 173.05 15.713 175.35 15.3968C176.147 15.2881 176.943 15.2288 177.75 15.2288C180.319 15.2288 182.24 15.8612 183.515 17.1262C184.749 18.3516 185.357 20.1502 185.357 22.5318V32.3549H180.677V30.5266C179.383 31.9398 177.66 32.6612 175.519 32.6612ZM176.983 29.3408C178.108 29.3408 179.024 29.0641 179.721 28.5008C180.398 27.9968 180.787 27.2062 180.767 26.3662V25.5163C179.851 25.0913 178.825 24.8838 177.68 24.8838C176.615 24.8838 175.798 25.0913 175.211 25.4965C174.623 25.9017 174.334 26.5045 174.334 27.2852C174.334 27.9177 174.573 28.4217 175.071 28.7873C175.569 29.153 176.196 29.3408 176.983 29.3408Z" fill="white"/>
<path d="M25.9855 20.2391C29.1617 18.3021 30.7449 15.4066 30.7449 11.5426C30.7449 8.09365 29.5003 5.30682 27.021 3.18212C24.5417 1.05741 21.2758 0 17.2333 0H0.356262V5.26729C0.356262 7.06588 0.615142 8.68659 2.37753 9.12141C2.65632 9.19059 2.94507 9.23012 3.23382 9.22024C4.71741 9.12141 14.306 6.48282 16.9446 6.33459C17.5619 6.30494 18.1394 6.65082 18.3983 7.21412C18.6671 7.79718 19.0753 8.51859 19.5533 8.67671C20.3797 8.95341 24.5218 8.48894 25.0196 10.2678C25.4976 11.9972 24.7807 13.9638 23.8547 14.4678L22.9685 15.9995L22.0923 15.0014C22.0624 15.0014 22.0425 15.0014 22.0126 15.0113L21.1862 16.4344L20.31 15.4362C20.2602 15.4362 20.2503 15.4461 20.2005 15.4461L19.3541 16.9186L18.458 15.9007C18.4381 15.9007 18.4082 15.9007 18.3883 15.9106L16.6658 16.4442C15.9489 16.6913 15.461 16.9285 15.4311 17.1261C15.4012 17.304 15.7298 17.7191 16.2575 18.2428L17.5121 19.4188C17.532 19.4485 17.542 19.4584 17.5619 19.488L19.2147 19.3991L18.8563 20.6245C18.8961 20.6739 18.916 20.6936 18.9559 20.7431L20.6187 20.6541L20.2602 21.8795C20.3 21.9289 20.32 21.9586 20.3598 22.008L22.0325 21.9191L21.6442 23.2729C21.7338 23.3718 21.8035 23.4904 21.8434 23.6188C22.0027 24.4885 21.3256 25.6744 19.0056 25.4767C16.6857 25.2791 17.0939 23.5299 11.9362 25.0715C7.12699 26.5144 4.06025 28.5896 2.01908 32.7995C0.206908 36.5054 0.356262 42 0.356262 42H18.2589C22.5802 42 25.9755 41.3576 28.4448 39.2132C30.9141 37.0687 32.1588 34.104 32.1588 30.2894C32.1588 25.7336 30.1076 22.3835 25.9855 20.2391Z" fill="#1788FB"/>
</g>
<defs>
<clipPath id="clip0_247_2475">
<rect width="185" height="42" fill="white" transform="translate(0.356812)"/>
</clipPath>
</defs>
</svg>
