<svg width="97" height="38" viewBox="0 0 97 38" fill="none" xmlns="http://www.w3.org/2000/svg">
<g clip-path="url(#clip0_247_2487)">
<path d="M68.7798 28.0945V3.76465H73.7385V28.0945H68.7798Z" fill="#F7A600"/>
<path d="M10.9875 35.3216H0.356812V10.9917H10.56C15.5189 10.9917 18.4082 13.657 18.4082 17.8261C18.4082 20.5248 16.5526 22.2689 15.2681 22.8495C16.8013 23.5326 18.7638 25.07 18.7638 28.3178C18.7638 32.8611 15.5189 35.3216 10.9875 35.3216ZM10.1675 15.2297H5.3156V20.8338H10.1675C12.272 20.8338 13.4494 19.706 13.4494 18.0308C13.4494 16.3576 12.272 15.2297 10.1675 15.2297ZM10.4881 25.1053H5.3156V31.0854H10.4881C12.7363 31.0854 13.805 29.7193 13.805 28.0777C13.805 26.438 12.7343 25.1053 10.4881 25.1053Z" fill="white"/>
<path d="M33.8886 25.3436V35.3216H28.9648V25.3436L21.3304 10.9917H26.7166L31.4617 20.7984L36.1349 10.9917H41.5212L33.8886 25.3436Z" fill="white"/>
<path d="M55.5796 35.3216H44.9489V10.9917H55.1522C60.111 10.9917 63.0003 13.657 63.0003 17.8261C63.0003 20.5248 61.1447 22.2689 59.8603 22.8495C61.3934 23.5326 63.356 25.07 63.356 28.3178C63.356 32.8611 60.111 35.3216 55.5796 35.3216ZM54.7597 15.2297H49.9077V20.8338H54.7597C56.8641 20.8338 58.0415 19.706 58.0415 18.0308C58.0415 16.3576 56.8641 15.2297 54.7597 15.2297ZM55.0802 25.1053H49.9077V31.0854H55.0802C57.3284 31.0854 58.3971 29.7193 58.3971 28.0777C58.3971 26.438 57.3284 25.1053 55.0802 25.1053Z" fill="white"/>
<path d="M89.7207 15.2297V35.3234H84.7619V15.2297H78.1262V10.9917H96.3564V15.2297H89.7207Z" fill="white"/>
</g>
<defs>
<clipPath id="clip0_247_2487">
<rect width="96" height="37" fill="white" transform="translate(0.356812 0.5)"/>
</clipPath>
</defs>
</svg>
