<svg width="176" height="51" viewBox="0 0 176 51" fill="none" xmlns="http://www.w3.org/2000/svg">
<g clip-path="url(#clip0_154_1026)">
<path d="M60.4129 47.6598L46.7494 34.0246C48.7021 31.7039 49.8797 28.7147 49.8797 25.4547C49.8797 18.0932 43.8782 12.1024 36.4996 12.1024C29.1211 12.1024 23.1195 18.0915 23.1195 25.4547C23.1195 32.818 29.1211 38.8071 36.4996 38.8071C39.3499 38.8071 41.9937 37.9096 44.1669 36.387L48.1842 40.396C44.9595 42.9139 40.9019 44.4155 36.4996 44.4155C26.0241 44.4155 17.4994 35.9086 17.4994 25.4547C17.4994 14.9992 26.0241 6.49218 36.5013 6.49218C46.9786 6.49218 55.5015 14.9992 55.5015 25.4547C55.5015 29.0238 54.5076 32.3657 52.7824 35.2206L55.3178 37.7506C57.6449 34.2166 59.0009 29.9911 59.0009 25.4547C59.0009 13.0732 48.9069 3 36.5013 3C24.0941 3 14 13.0732 14 25.4547C14 37.8363 24.0941 47.9076 36.5013 47.9076C41.8695 47.9076 46.8037 46.0219 50.6758 42.879L55.4665 47.6598H60.4129ZM26.6207 25.4547C26.6207 20.0174 31.0527 15.5946 36.5013 15.5946C41.95 15.5946 46.382 20.0174 46.382 25.4547C46.382 30.892 41.95 35.3149 36.5013 35.3149C31.0527 35.3149 26.6207 30.8903 26.6207 25.4547Z" fill="#D9552B"/>
<g opacity="0.8">
<path opacity="0.8" d="M91.7014 33.8838H90.2221L88.717 32.2514C87.1018 33.5267 85.2399 34.1643 83.1315 34.1643C80.649 34.1643 78.5575 33.3227 76.8572 31.6393C75.1569 29.939 74.3066 27.8646 74.3066 25.4161C74.3066 22.9675 75.1569 20.8931 76.8572 19.1927C78.5575 17.4924 80.649 16.6422 83.1315 16.6422C85.597 16.6422 87.6799 17.4924 89.3801 19.1927C91.0974 20.8931 91.9564 22.9675 91.9564 25.4161C91.9564 27.7795 91.1403 29.82 89.508 31.5373L91.7014 33.8838ZM83.1315 33.1441C84.9679 33.1441 86.5917 32.5915 88.0028 31.4863L83.7436 26.9208H85.2229L88.768 30.7466C90.1112 29.2843 90.7832 27.5075 90.7832 25.4161C90.7832 23.2396 90.0521 21.4032 88.5898 19.9069C87.1273 18.4106 85.308 17.6625 83.1315 17.6625C80.955 17.6625 79.1356 18.4106 77.6734 19.9069C76.211 21.3862 75.4799 23.2226 75.4799 25.4161C75.4799 27.5925 76.211 29.4288 77.6734 30.9252C79.1356 32.4045 80.955 33.1441 83.1315 33.1441Z" fill="white"/>
<path opacity="0.8" d="M100.139 33.8838H99.0166L100.955 16.2852L108.326 32.0219L115.697 16.2852L117.636 33.8838H116.513L115.008 20.213C110.571 29.7349 108.343 34.4959 108.326 34.4959L101.644 20.213L100.139 33.8838Z" fill="white"/>
<path opacity="0.8" d="M136.451 33.8838L134.181 28.2982H126.938L124.668 33.8838H123.443L130.61 16.3617L137.676 33.8838H136.451ZM127.346 27.2779H133.773L130.585 19.2183L127.346 27.2779Z" fill="white"/>
<path opacity="0.8" d="M143.896 16.8718H145.019V32.8636H149.763V33.8838H143.896V16.8718Z" fill="white"/>
<path opacity="0.8" d="M155.986 16.8718H157.109V32.8636H161.852V33.8838H155.986V16.8718Z" fill="white"/>
<path opacity="0.8" d="M91.7014 33.8838H90.2221L88.717 32.2514C87.1018 33.5267 85.2399 34.1643 83.1315 34.1643C80.649 34.1643 78.5575 33.3227 76.8572 31.6393C75.1569 29.939 74.3066 27.8646 74.3066 25.4161C74.3066 22.9675 75.1569 20.8931 76.8572 19.1927C78.5575 17.4924 80.649 16.6422 83.1315 16.6422C85.597 16.6422 87.6799 17.4924 89.3801 19.1927C91.0974 20.8931 91.9564 22.9675 91.9564 25.4161C91.9564 27.7795 91.1403 29.82 89.508 31.5373L91.7014 33.8838ZM83.1315 33.1441C84.9679 33.1441 86.5917 32.5915 88.0028 31.4863L83.7436 26.9208H85.2229L88.768 30.7466C90.1112 29.2843 90.7832 27.5075 90.7832 25.4161C90.7832 23.2396 90.0521 21.4032 88.5898 19.9069C87.1273 18.4106 85.308 17.6625 83.1315 17.6625C80.955 17.6625 79.1356 18.4106 77.6734 19.9069C76.211 21.3862 75.4799 23.2226 75.4799 25.4161C75.4799 27.5925 76.211 29.4288 77.6734 30.9252C79.1356 32.4045 80.955 33.1441 83.1315 33.1441Z" stroke="white" stroke-width="2.30668"/>
<path opacity="0.8" d="M100.139 33.8838H99.0166L100.955 16.2852L108.326 32.0219L115.697 16.2852L117.636 33.8838H116.513L115.008 20.213C110.571 29.7349 108.343 34.4959 108.326 34.4959L101.644 20.213L100.139 33.8838Z" stroke="white" stroke-width="2.30668"/>
<path opacity="0.8" d="M136.451 33.8838L134.181 28.2982H126.938L124.668 33.8838H123.443L130.61 16.3617L137.676 33.8838H136.451ZM127.346 27.2779H133.773L130.585 19.2183L127.346 27.2779Z" stroke="white" stroke-width="2.30668"/>
<path opacity="0.8" d="M143.896 16.8718H145.019V32.8636H149.763V33.8838H143.896V16.8718Z" stroke="white" stroke-width="2.30668"/>
<path opacity="0.8" d="M155.986 16.8718H157.109V32.8636H161.852V33.8838H155.986V16.8718Z" stroke="white" stroke-width="2.30668"/>
</g>
</g>
<defs>
<clipPath id="clip0_154_1026">
<rect width="148" height="44.9471" fill="white" transform="translate(14 3)"/>
</clipPath>
</defs>
</svg>
