<svg width="233" height="36" viewBox="0 0 233 36" fill="none" xmlns="http://www.w3.org/2000/svg">
<path fill-rule="evenodd" clip-rule="evenodd" d="M43.3638 9.63501V19.5489H33.5486V10.9103C33.5486 10.206 32.9753 9.63501 32.2683 9.63501H28.9554V33.2599C28.9554 33.9644 29.5284 34.5355 30.2358 34.5355H33.5486V23.5471H43.3638V33.2599C43.3638 33.9644 43.9368 34.5355 44.6442 34.5355H47.9569V10.9103C47.9569 10.206 47.3837 9.63501 46.6763 9.63501H43.3638Z" fill="white"/>
<path fill-rule="evenodd" clip-rule="evenodd" d="M62.6306 15.5049V27.3046C62.6306 28.3767 62.0818 29.3932 61.15 29.9295C58.5491 31.4267 55.8575 29.5564 55.8575 27.0906V16.7802C55.8575 16.0758 55.2844 15.5049 54.5772 15.5049H51.2511V27.511C51.2511 31.3743 54.4237 34.5349 58.3015 34.5349H60.1867C64.0646 34.5349 67.2371 31.3743 67.2371 27.511V16.7802C67.2371 16.0758 66.664 15.5049 65.957 15.5049H62.6306Z" fill="white"/>
<path fill-rule="evenodd" clip-rule="evenodd" d="M113.721 34.5361H117.034V17.8264C117.034 17.1218 116.46 16.5508 115.753 16.5508H112.441V33.2605C112.441 33.9651 113.014 34.5361 113.721 34.5361Z" fill="#2483FF"/>
<path fill-rule="evenodd" clip-rule="evenodd" d="M114.737 14.7387C116.153 14.7387 117.301 13.5953 117.301 12.1849C117.301 10.7745 116.153 9.63135 114.737 9.63135C113.322 9.63135 112.174 10.7745 112.174 12.1849C112.174 13.5953 113.322 14.7387 114.737 14.7387Z" fill="#2483FF"/>
<path fill-rule="evenodd" clip-rule="evenodd" d="M83.401 26.6333C83.401 28.9034 81.5369 30.4146 79.2581 30.4146C76.9793 30.4146 75.1149 28.9034 75.1149 26.6333V23.3938C75.1149 21.1235 76.9793 19.6123 79.2581 19.6123C81.5369 19.6123 83.401 21.1235 83.401 23.3938V26.6333ZM79.2581 15.4927C74.4401 15.4927 70.4981 18.9261 70.4981 23.7257V26.3217C70.4981 31.1213 74.4401 34.5343 79.2581 34.5343C84.0758 34.5343 88.0181 31.1213 88.0181 26.3217V23.7257C88.0181 18.9261 84.0758 15.4927 79.2581 15.4927Z" fill="white"/>
<path fill-rule="evenodd" clip-rule="evenodd" d="M104.25 26.6314C104.25 28.9017 102.386 30.4129 100.107 30.4129C97.8282 30.4129 95.9635 28.9017 95.9635 26.6314V23.392C95.9635 21.1218 97.8282 19.6106 100.107 19.6106C102.386 19.6106 104.25 21.1218 104.25 23.392V26.6314ZM100.107 15.491C98.6008 15.491 97.181 15.8264 95.94 16.434V10.8862C95.94 10.1816 95.3666 9.6106 94.6597 9.6106H91.3467V26.32C91.3467 31.1198 95.2888 34.5326 100.107 34.5326C104.925 34.5326 108.867 31.1198 108.867 26.32V23.724C108.867 18.9244 104.925 15.491 100.107 15.491Z" fill="#2483FF"/>
<path fill-rule="evenodd" clip-rule="evenodd" d="M195.837 26.7137C195.837 28.9603 193.992 30.4561 191.737 30.4561C189.481 30.4561 187.635 28.9603 187.635 26.7137V23.5073C187.635 21.2607 189.481 19.7651 191.737 19.7651C193.992 19.7651 195.837 21.2607 195.837 23.5073V26.7137ZM191.737 15.6879C190.247 15.6879 188.84 16.0195 187.613 16.6207V10.8935C187.613 10.1965 187.046 9.63135 186.345 9.63135H183.067V26.4054C183.067 31.1556 186.968 34.5332 191.737 34.5332C196.505 34.5332 200.406 31.1556 200.406 26.4054V23.8358C200.406 19.0857 196.505 15.6879 191.737 15.6879Z" fill="white"/>
<path fill-rule="evenodd" clip-rule="evenodd" d="M232.643 34.4443V31.5712C232.643 30.8909 232.09 30.3403 231.408 30.3427C230.717 30.3451 229.85 30.3473 229.118 30.3473C227.252 30.3473 227.338 29.4179 227.338 27.0083V10.8772C227.338 10.1985 226.787 9.64844 226.107 9.64844H222.743V27.5591C222.743 31.8966 223.866 34.4443 228.565 34.4443C230.382 34.4443 231.698 34.393 232.643 34.4446V34.4443Z" fill="white"/>
<path fill-rule="evenodd" clip-rule="evenodd" d="M144.611 19.6509H135.723V22.0635C135.723 22.7888 136.313 23.3768 137.041 23.3768H141.263V25.5099C141.263 27.0836 140.869 28.245 140.053 29.0636C139.053 30.093 137.668 30.637 136.049 30.637C134.59 30.637 133.202 30.1338 132.335 29.2915C131.131 28.1154 130.871 26.8384 130.871 22.098C130.871 17.3846 131.131 16.1133 132.335 14.9385C133.224 14.0746 134.957 13.4209 136.394 13.4209C141.252 13.4209 142.884 15.1388 144.101 16.703H144.261V13.2052C144.261 12.6881 144.013 12.2047 143.607 11.8818C141.572 10.2589 139.543 9.66577 136.049 9.66577C133.227 9.66577 130.814 10.5492 128.878 12.2912C126.204 14.6965 126.204 17.4105 126.205 21.9066V22.2892C126.204 26.7853 126.204 29.499 128.878 31.9043C130.787 33.6226 133.267 34.5304 136.049 34.5304C138.971 34.5304 141.543 33.5506 143.487 31.6974L143.487 31.6968C145.222 30.0371 145.929 26.8589 145.929 23.554V20.9639C145.929 20.2389 145.339 19.6509 144.611 19.6509Z" fill="white"/>
<path fill-rule="evenodd" clip-rule="evenodd" d="M159.093 34.4443V31.5712C159.093 30.8909 158.541 30.3403 157.858 30.3427C157.167 30.3451 156.301 30.3473 155.568 30.3473C153.702 30.3473 153.789 29.4179 153.789 27.0083V10.8772C153.789 10.1985 153.237 9.64844 152.556 9.64844H149.194V27.5591C149.194 31.8966 150.316 34.4443 155.016 34.4443C156.831 34.4443 158.149 34.393 159.093 34.4446L159.093 34.4443Z" fill="white"/>
<path fill-rule="evenodd" clip-rule="evenodd" d="M175.179 26.7125C175.179 28.9592 173.334 30.4549 171.079 30.4549C168.825 30.4549 166.979 28.9592 166.979 26.7125V23.5063C166.979 21.2597 168.825 19.764 171.079 19.764C173.334 19.764 175.179 21.2597 175.179 23.5063V26.7125ZM171.079 15.6868C166.312 15.6868 162.409 19.0847 162.409 23.8348V26.4043C162.409 31.1547 166.312 34.5321 171.079 34.5321C175.849 34.5321 179.749 31.1547 179.749 26.4043V23.8348C179.749 19.0847 175.849 15.6868 171.079 15.6868Z" fill="white"/>
<path fill-rule="evenodd" clip-rule="evenodd" d="M214.909 26.0013V30.73C214.555 30.7982 214.163 30.8527 213.739 30.8915C212.699 30.989 211.767 31.0068 210.685 30.9086C210.261 30.8705 209.869 30.7628 209.521 30.591C209.185 30.4242 208.91 30.1871 208.682 29.8657C208.465 29.5612 208.355 29.1113 208.355 28.5287C208.355 27.6211 208.679 26.9712 209.348 26.5412C210.06 26.0831 211.137 25.8506 212.554 25.8506C212.935 25.8506 213.4 25.8724 213.95 25.9157C214.308 25.9443 214.63 25.9729 214.909 26.0013ZM217.368 17.288C216.005 16.204 214.013 15.6545 211.446 15.6545C210.493 15.6545 209.49 15.7238 208.465 15.8601C207.644 15.9693 206.481 16.1256 205.675 16.3108C205.348 16.3859 205.288 16.6419 205.288 16.9484V19.3928C205.288 19.8284 205.292 20.2247 205.756 20.1122C206.62 19.9026 208.294 19.5329 208.75 19.4581C209.469 19.3401 210.253 19.2807 211.078 19.2807C212.364 19.2807 213.344 19.5098 213.991 19.9602C214.6 20.3848 214.909 21.1928 214.909 22.3616V22.5031C214.68 22.4821 214.429 22.4619 214.155 22.4437C213.642 22.4092 212.986 22.3917 212.184 22.3917C211.091 22.3917 210.031 22.5153 209.037 22.7589C208.027 23.007 207.118 23.3902 206.338 23.8989C205.543 24.4178 204.905 25.0761 204.443 25.8576C203.976 26.6445 203.74 27.5663 203.74 28.5959C203.74 29.6417 203.943 30.5522 204.341 31.3014C204.743 32.0574 205.321 32.6877 206.059 33.1742C206.784 33.6546 207.675 34.0057 208.704 34.2195C209.705 34.4267 210.839 34.5319 212.074 34.5319C212.973 34.5319 219.449 34.441 219.449 31.3708C219.449 27.813 219.449 22.4951 219.449 22.4951C219.449 20.1399 218.749 18.3879 217.368 17.288Z" fill="white"/>
<path fill-rule="evenodd" clip-rule="evenodd" d="M15.2025 11.3611C15.2025 6.40252 12.7778 2.13841 10.9336 0.749844C10.926 0.745477 10.7924 0.670648 10.8038 0.868931L10.8012 0.875045C10.6481 10.4488 5.73848 13.0437 3.03937 16.5391C-3.18953 24.6055 2.6033 33.4494 8.5022 35.084C11.8028 35.9986 7.73996 33.4658 7.2168 28.1159C6.58403 21.6496 15.2025 16.7139 15.2025 11.3611Z" fill="white"/>
<path fill-rule="evenodd" clip-rule="evenodd" d="M18.033 14.6197C17.9953 14.5941 17.9414 14.5766 17.9044 14.6378C17.8029 15.8429 16.5672 18.4209 15.0009 20.788C9.68861 28.8175 12.716 32.6882 14.4181 34.7671C15.4066 35.974 14.4181 34.7671 16.8888 33.5338C17.0822 33.4372 21.7092 30.8521 22.2102 24.9625C22.6952 19.2591 19.2567 15.6641 18.033 14.6197Z" fill="#2483FF"/>
</svg>
