<svg width="176" height="51" viewBox="0 0 176 51" fill="none" xmlns="http://www.w3.org/2000/svg">
<g clip-path="url(#clip0_154_994)">
<path d="M145.154 19.766L139.552 25.3794L155.435 41.3677C155.781 41.7159 156.25 41.9115 156.74 41.9115C157.23 41.9115 157.7 41.7159 158.047 41.3677L161.023 38.3721C161.368 38.0231 161.563 37.5501 161.563 37.0572C161.563 36.5641 161.368 36.0912 161.023 35.7422L145.152 19.766H145.154Z" fill="white"/>
<path fill-rule="evenodd" clip-rule="evenodd" d="M71.8494 17.4012C76.8062 17.4012 80.6627 21.3304 80.6627 25.9632C80.6627 30.596 76.8131 34.5234 71.8494 34.5234V34.5251H58.6552C57.6345 34.5251 56.8074 35.3577 56.8074 36.387V40.6192C56.8074 41.6468 57.6345 42.4828 58.6552 42.4828H71.8511V42.481C80.9914 42.481 88.5608 35.173 88.5608 25.9632C88.5608 16.7498 80.981 9.4436 71.8494 9.4436H58.6535C57.6327 9.4436 56.8057 10.2779 56.8057 11.3072V15.5394C56.8057 16.567 57.6327 17.403 58.6535 17.403H71.8494V17.4012Z" fill="white"/>
<path d="M139.564 25.3639L145.142 31.0017L161.025 15.0133C161.371 14.6645 161.566 14.1915 161.566 13.6984C161.566 13.2052 161.371 12.7322 161.025 12.3834L158.047 9.38776C157.7 9.03903 157.23 8.84314 156.739 8.84314C156.249 8.84314 155.779 9.03903 155.433 9.38776L139.564 25.3639ZM44.3848 11.3227C44.3848 10.2952 45.2101 9.4644 46.2292 9.46091L50.4334 9.45047C50.6766 9.44955 50.9175 9.49692 51.1425 9.58985C51.3675 9.68279 51.572 9.81947 51.7444 9.99208C51.9169 10.1647 52.0538 10.3698 52.1474 10.5958C52.2409 10.8217 52.2893 11.064 52.2898 11.3088V40.6209C52.2898 41.6484 51.4628 42.4809 50.442 42.4809H46.2343C45.2135 42.4809 44.3865 41.6484 44.3865 40.6209L44.3848 11.3227ZM116.627 34.5407C117.648 34.5407 118.475 35.3715 118.476 36.3973L118.483 40.633C118.483 41.1269 118.288 41.6007 117.942 41.9501C117.595 42.2995 117.125 42.4961 116.634 42.4966H94.931C93.9102 42.4966 93.0814 41.6641 93.0814 40.6347V36.4025C93.0814 35.3749 93.9102 34.539 94.931 34.539H116.627V34.5407Z" fill="white"/>
<path d="M126.499 21.9918C127.52 21.9918 128.346 22.8209 128.349 23.8484L128.359 28.0807C128.36 28.3254 128.313 28.5679 128.22 28.7944C128.128 29.0207 127.992 29.2265 127.82 29.3999C127.648 29.5733 127.444 29.711 127.22 29.805C126.996 29.899 126.754 29.9475 126.512 29.9477H94.9209C93.9001 29.9477 93.0713 29.1152 93.0713 28.0858V23.8536C93.0713 22.8261 93.9001 21.9901 94.9226 21.9901H126.499V21.9918Z" fill="#E3163B"/>
<path fill-rule="evenodd" clip-rule="evenodd" d="M39.9109 11.2771C39.9096 10.7846 39.7144 10.3126 39.368 9.96462C39.0217 9.61664 38.5525 9.42099 38.0631 9.42053H16.3671C15.8767 9.421 15.4066 9.6173 15.0598 9.96636C14.713 10.3154 14.518 10.7887 14.5176 11.2824V15.5146C14.5176 16.5439 15.3463 17.3781 16.3671 17.3781H23.2652V40.6205C23.2652 41.6481 24.0939 42.4805 25.1148 42.4805H29.3207C30.3415 42.4805 31.1703 41.6481 31.1703 40.6205V17.3781H38.0718C39.0926 17.3781 39.923 16.5422 39.9196 15.5128L39.9109 11.2771Z" fill="white"/>
<path d="M116.625 9.44507C117.646 9.44507 118.471 10.2758 118.473 11.3034L118.481 15.5356C118.482 15.7804 118.434 16.0227 118.342 16.2489C118.248 16.4751 118.112 16.6807 117.94 16.8539C117.768 17.0271 117.565 17.1646 117.34 17.2584C117.116 17.3523 116.875 17.4007 116.632 17.4009H94.9238C93.903 17.4009 93.0742 16.5684 93.0742 15.5409V11.3069C93.0742 10.2793 93.9029 9.44507 94.9255 9.44507H116.625Z" fill="white"/>
<path d="M145.139 19.766L150.739 25.3794L134.858 41.3677C134.511 41.7159 134.041 41.9115 133.551 41.9115C133.062 41.9115 132.592 41.7159 132.246 41.3677L129.269 38.3721C128.923 38.0232 128.729 37.5503 128.729 37.0572C128.729 36.564 128.923 36.091 129.269 35.7422L145.139 19.766Z" fill="#E3163B"/>
<path d="M150.728 25.3638L145.15 31.0015L129.269 15.0132C128.923 14.6641 128.729 14.1912 128.729 13.6982C128.729 13.2052 128.923 12.7323 129.269 12.3833L132.245 9.38763C132.592 9.03942 133.061 8.84387 133.551 8.84387C134.041 8.84387 134.511 9.03942 134.858 9.38763L150.728 25.3638Z" fill="#E3163B"/>
</g>
<defs>
<clipPath id="clip0_154_994">
<rect width="148" height="34.8736" fill="white" transform="translate(14 8)"/>
</clipPath>
</defs>
</svg>
