<svg width="176" height="51" viewBox="0 0 176 51" fill="none" xmlns="http://www.w3.org/2000/svg">
<g clip-path="url(#clip0_154_1088)">
<path d="M76.8162 15.1665H76.7956V15.1848L70.8443 30.4911L64.909 15.1802V15.1619H60.251L60.267 15.2008L68.7522 35.6985V35.7168H72.9319V35.6985L81.4171 15.2008L81.4331 15.1619H76.8162V15.1665ZM72.925 35.6939H68.782L64.1285 24.4825L68.7682 35.6985L72.925 35.6939ZM162 29.5641C162.04 30.9219 161.598 32.2499 160.753 33.3134C159.931 34.3213 158.843 35.0779 157.612 35.4971C156.246 35.9506 154.813 36.1718 153.373 36.1517C148.813 36.1517 145.819 34.4533 144.446 31.1L144.393 30.9672V30.9443L144.416 30.9306L147.85 29.1498L147.879 29.136V29.1658L147.944 29.3237C148.332 30.3167 149.073 31.1317 150.024 31.6127C151.078 32.1465 152.247 32.4152 153.428 32.3955C154.712 32.3955 155.792 32.1529 156.632 31.6722C157.019 31.4765 157.34 31.1734 157.558 30.7995C157.776 30.4255 157.882 29.9965 157.862 29.5641C157.862 28.0373 156.351 27.1034 153.373 26.7898C152.352 26.6839 151.34 26.5049 150.345 26.2542C149.478 26.0218 148.642 25.6851 147.857 25.2516C147.053 24.8239 146.394 24.1686 145.961 23.3678C145.514 22.4883 145.294 21.5111 145.32 20.5249C145.293 19.2578 145.739 18.026 146.572 17.0709C147.367 16.1508 148.395 15.4627 149.548 15.0795C150.754 14.6923 152.011 14.4908 153.277 14.4821C157.296 14.4821 160.011 15.8554 161.341 18.577L161.407 18.7144L161.419 18.7395H161.394L158.123 20.4448L158.1 20.4585L158.086 20.4357L158.01 20.3098C157.667 19.7307 157.061 19.2225 156.207 18.8013C155.333 18.3709 154.372 18.1498 153.398 18.1558C152.084 18.1558 151.075 18.3847 150.402 18.8677C150.1 19.0545 149.851 19.3157 149.678 19.6263C149.506 19.9369 149.416 20.2865 149.418 20.6417C149.413 20.8775 149.464 21.1111 149.567 21.3233C149.67 21.5354 149.822 21.72 150.011 21.8617C150.446 22.2077 150.951 22.4552 151.491 22.5873C152.231 22.7667 152.981 22.8997 153.737 22.9856C154.673 23.1 155.509 23.2374 156.223 23.3907C156.98 23.5605 157.721 23.8003 158.434 24.1072C159.12 24.3794 159.755 24.7665 160.311 25.2516C160.836 25.7545 161.248 26.363 161.519 27.037C161.848 27.8385 162.011 28.698 162 29.5641ZM100.935 15.1665H100.965V19.2111H89.6779V23.4662H100.562V27.3575H89.6779V31.5349H100.965V35.6367H85.5486V15.1665H100.935ZM134.629 15.1802V15.1619H130.438V15.1802L121.952 35.6779L121.936 35.7168H126.588V35.6985L132.539 20.3922L138.465 35.6985V35.7168H143.116L143.1 35.6779L134.629 15.1802ZM134.603 15.1916L139.243 26.4076L134.603 15.1916ZM109.249 31.5349H119.588V31.7935V35.6367H105.101V15.1665H109.26V31.5349H109.249Z" fill="#00FFB4"/>
<path d="M40.108 21.333L32.9984 33.6659L25.8683 21.333H40.108ZM47.2289 17.2128H18.7473L32.9984 41.8879L47.2289 17.222V17.2128ZM14 9L16.3737 13.1201H49.6026L51.9762 9H14Z" fill="#00FFB4"/>
</g>
<defs>
<clipPath id="clip0_154_1088">
<rect width="148" height="32.8879" fill="white" transform="translate(14 9)"/>
</clipPath>
</defs>
</svg>
