<svg width="176" height="51" viewBox="0 0 176 51" fill="none" xmlns="http://www.w3.org/2000/svg">
<g clip-path="url(#clip0_154_1102)">
<path fill-rule="evenodd" clip-rule="evenodd" d="M92.1846 23.1822C92.1846 21.8456 92.5723 20.5681 93.6207 19.6193C94.6748 18.6651 96.444 18.0002 99.2957 18.0002H100.508C103.603 18.0002 105.367 18.7935 106.363 19.8482C107.359 20.9044 107.639 22.2802 107.639 23.5673V24.0069H95.8606L95.9361 24.3799C96.0812 25.0972 96.4616 25.7057 97.1456 26.1257C97.8178 26.5384 98.7594 26.7554 100.011 26.7554H100.031C101.537 26.7554 102.455 26.4654 103.014 26.1075C103.407 25.8554 103.615 25.5748 103.72 25.357H107.566C107.507 25.9899 107.237 26.7773 106.419 27.4472C105.459 28.2333 103.705 28.8912 100.548 28.8912H99.415C96.6051 28.8912 94.8034 28.2221 93.7074 27.2521C92.6175 26.2872 92.1846 24.9877 92.1846 23.6281V23.1822ZM99.8722 19.913C98.7336 19.913 97.8709 20.0883 97.2389 20.4399C96.5943 20.7986 96.2121 21.3286 96.0221 21.9789L95.9053 22.3778H103.866L103.765 21.9886C103.595 21.3296 103.209 20.7974 102.556 20.4391C101.917 20.0881 101.04 19.913 99.8921 19.913H99.8722Z" fill="white"/>
<path fill-rule="evenodd" clip-rule="evenodd" d="M130.093 23.162C130.093 21.8286 130.562 20.5556 131.536 19.6151C132.509 18.675 134.014 18.0408 136.131 18.0408H136.429C139.459 18.0408 140.875 19.237 141.303 19.6726L141.822 20.2022V18.3042H145.667V28.5872H141.862V26.1906L141.304 27.0432C141.047 27.4378 139.634 28.8506 136.608 28.8506H136.329C134.13 28.8506 132.577 28.2147 131.575 27.2529C130.574 26.2915 130.093 24.9745 130.093 23.547V23.162ZM137.622 20.2778C136.292 20.2778 135.378 20.6604 134.799 21.2687C134.222 21.8741 134.017 22.6598 134.017 23.3849V23.466C134.017 24.1677 134.272 24.9535 134.868 25.5646C135.469 26.18 136.392 26.5933 137.681 26.5933H137.781C140.278 26.5933 141.822 25.0271 141.822 23.466V23.3849C141.822 21.7725 140.205 20.2778 137.721 20.2778H137.622Z" fill="white"/>
<path d="M74.1703 28.5872L69.9893 18.3043H73.9316L76.5935 25.894L79.2123 18.3043H83.4357L86.141 25.894L88.7164 18.3043H92.1908L88.291 28.5872H84.0196L81.1836 20.7901L78.3477 28.5872H74.1703Z" fill="white"/>
<path d="M111.69 28.5872L107.509 18.3043H111.451L114.113 25.894L116.732 18.3043H120.955L123.661 25.894L126.236 18.3043H129.71L125.811 28.5872H121.539L118.703 20.7901L115.867 28.5872H111.69Z" fill="white"/>
<path d="M151.864 27.8215L146.987 18.3043H151.064L154.7 26.1025L158.23 18.3043H162L156.611 29.4872L156.61 29.4888C156.109 30.4998 155.63 31.2225 155.064 31.6948C154.51 32.1578 153.85 32.3973 152.946 32.3973H149.374V29.7752H151.574C151.795 29.7752 152.01 29.7467 152.171 29.6254C152.359 29.4827 152.395 29.2765 152.395 29.1204C152.395 28.9333 152.322 28.7461 152.237 28.5623C152.178 28.4347 152.099 28.2811 152.007 28.1008C151.962 28.0143 151.915 27.9217 151.865 27.8229L151.864 27.8215Z" fill="white"/>
<path fill-rule="evenodd" clip-rule="evenodd" d="M60.1069 18.7669C60.5225 19.1905 60.5225 19.8771 60.1069 20.3007L52.1333 28.4291C51.718 28.8526 51.0445 28.8526 50.6289 28.4291C50.2135 28.0055 50.2135 27.3189 50.6289 26.8953L58.6025 18.7669C59.0178 18.3434 59.6916 18.3434 60.1069 18.7669Z" fill="white"/>
<path fill-rule="evenodd" clip-rule="evenodd" d="M38.5821 18.7669C38.1666 19.1905 38.1666 19.8771 38.5821 20.3007L46.5555 28.4291C46.9711 28.8526 47.6446 28.8526 48.0602 28.4291C48.4756 28.0055 48.4756 27.3189 48.0602 26.8953L40.0866 18.7669C39.6712 18.3434 38.9976 18.3434 38.5821 18.7669Z" fill="white"/>
<path fill-rule="evenodd" clip-rule="evenodd" d="M36.0133 18.7669C36.4287 19.1905 36.4287 19.8771 36.0133 20.3007L28.0398 28.4291C27.6243 28.8526 26.9507 28.8526 26.5352 28.4291C26.1198 28.0055 26.1198 27.3189 26.5352 26.8953L34.5087 18.7669C34.9242 18.3434 35.5978 18.3434 36.0133 18.7669Z" fill="white"/>
<path fill-rule="evenodd" clip-rule="evenodd" d="M14.4893 18.7669C14.0739 19.1905 14.0739 19.8771 14.4893 20.3007L22.4628 28.4291C22.8783 28.8526 23.5519 28.8526 23.9673 28.4291C24.3828 28.0055 24.3828 27.3189 23.9673 26.8953L15.9939 18.7669C15.5784 18.3434 14.9048 18.3434 14.4893 18.7669Z" fill="white"/>
</g>
<defs>
<clipPath id="clip0_154_1102">
<rect width="148" height="14.4711" fill="white" transform="translate(14 18)"/>
</clipPath>
</defs>
</svg>
