<svg width="33" height="32" viewBox="0 0 33 32" fill="none" xmlns="http://www.w3.org/2000/svg">
<path d="M19.9219 23.4792C19.9219 24.4716 20.7264 25.2761 21.7188 25.2761C22.7111 25.2761 23.5156 24.4716 23.5156 23.4792C23.5156 22.4868 22.7111 21.6823 21.7188 21.6823C20.7264 21.6823 19.9219 20.8779 19.9219 19.8854C19.9219 18.8931 20.7264 18.0886 21.7188 18.0886C22.7111 18.0886 23.5156 18.881 23.5156 19.8735" stroke="white" stroke-width="1.6" stroke-miterlimit="10"/>
<path d="M21.7188 15.3932V18.0886" stroke="white" stroke-width="1.6" stroke-miterlimit="10"/>
<path d="M21.7188 25.2761V27.9594" stroke="white" stroke-width="1.6" stroke-miterlimit="10"/>
<path d="M30.7031 21.6823C30.7031 26.6443 26.6807 30.6667 21.7188 30.6667C16.7568 30.6667 12.7344 26.6443 12.7344 21.6823C12.7344 16.7204 16.7568 12.6979 21.7188 12.6979C26.6807 12.6979 30.7031 16.7204 30.7031 21.6823Z" stroke="white" stroke-width="1.6" stroke-miterlimit="10"/>
<path d="M19.9219 6.28906C19.9219 8.77001 15.8995 10.7812 10.9375 10.7812C5.97556 10.7812 1.83334 8.77001 1.83334 6.28906C1.83334 3.80812 5.97556 1.79687 10.9375 1.79687C15.8995 1.79687 19.9219 3.80812 19.9219 6.28906Z" stroke="white" stroke-width="1.6" stroke-miterlimit="10"/>
<path d="M14.8996 15.8324C13.7045 16.1265 12.3596 16.2917 10.9375 16.2917C5.97556 16.2917 1.83334 14.2805 1.83334 11.7995" stroke="white" stroke-width="1.6" stroke-miterlimit="10"/>
<path d="M1.83334 6.28908V22.5807C1.83334 25.0617 5.97556 27.0729 10.9375 27.0729C12.1255 27.0729 13.2597 26.9576 14.2978 26.7482" stroke="white" stroke-width="1.6" stroke-miterlimit="10"/>
<path d="M19.9219 6.28902V12.8776" stroke="white" stroke-width="1.6" stroke-miterlimit="10"/>
<path d="M12.7349 21.5924C12.1541 21.6513 11.5531 21.6823 10.9375 21.6823C5.97556 21.6823 1.83334 19.6711 1.83334 17.1901" stroke="white" stroke-width="1.6" stroke-miterlimit="10"/>
</svg>
