<svg width="24" height="24" viewBox="0 0 24 24" fill="none" xmlns="http://www.w3.org/2000/svg">
<g clip-path="url(#clip0_247_1862)">
<path d="M11.3453 17.2647C10.8138 16.7333 8.22628 14.1459 7.64953 13.5691C7.28339 13.203 7.28349 12.6093 7.64953 12.2433C8.01567 11.8771 8.6093 11.8771 8.97539 12.2433L11.0625 14.3304L11.0625 7.37498C11.0625 6.8572 11.4822 6.43748 12 6.43748C12.5178 6.43748 12.9375 6.8572 12.9375 7.37498L12.9375 14.3304L15.0246 12.2433C15.3907 11.8772 15.9843 11.8772 16.3504 12.2433C16.7165 12.6095 16.7166 13.2031 16.3504 13.5692C15.8407 14.0789 13.1542 16.7653 12.6555 17.2639C12.2889 17.622 11.7076 17.6187 11.3453 17.2647ZM17.0451 24L6.95494 24C3.74962 24 2.12184 21.8264 1.92211 21.6854C0.682595 20.446 2.24164e-07 18.798 2.0326e-07 17.0451L8.29368e-08 6.95494C6.20332e-08 5.202 0.682642 3.55397 1.92216 2.31455C2.11959 2.17523 3.7493 2.41487e-07 6.95494 2.0326e-07L17.0451 8.29368e-08C20.2504 4.47138e-08 21.8782 2.17364 22.0779 2.31459C23.3174 3.55397 24 5.202 24 6.95494L24 17.0451C24 18.798 23.3174 20.446 22.0778 21.6855C21.8804 21.8248 20.2507 24 17.0451 24ZM17.0451 22.125C19.3939 22.125 20.5538 20.5021 20.752 20.3596C21.6374 19.4743 22.125 18.2971 22.125 17.0451L22.125 6.95494C22.125 5.70286 21.6375 4.52573 20.7521 3.64041C20.5467 3.4927 19.4064 1.875 17.0451 1.875L6.95494 1.875C4.60608 1.875 3.4462 3.49786 3.24797 3.64041C2.36255 4.52573 1.875 5.70286 1.875 6.95494L1.875 17.0451C1.875 18.2971 2.36255 19.4743 3.24792 20.3596C3.45333 20.5073 4.59361 22.125 6.95494 22.125L17.0451 22.125Z" fill="white"/>
</g>
<defs>
<clipPath id="clip0_247_1862">
<rect width="24" height="24" fill="white"/>
</clipPath>
</defs>
</svg>
