<svg width="18" height="18" viewBox="0 0 18 18" fill="none" xmlns="http://www.w3.org/2000/svg">
<path d="M11.6633 9.74707L10.1558 11.2597C9.54443 11.8732 8.46879 11.8864 7.84423 11.2597L6.33663 9.74707L0.922005 15.1793C1.12356 15.2725 1.34578 15.3281 1.58203 15.3281H16.418C16.6542 15.3281 16.8764 15.2725 17.0778 15.1793L11.6633 9.74707Z" fill="#818181"/>
<path d="M16.418 2.67188H1.58203C1.34578 2.67188 1.12356 2.72749 0.922081 2.82069L6.70799 8.6258C6.70838 8.62618 6.70883 8.62625 6.70922 8.62664C6.70961 8.62703 6.70968 8.62755 6.70968 8.62755L8.59099 10.5151C8.79082 10.7149 9.20925 10.7149 9.40908 10.5151L11.29 8.62787C11.29 8.62787 11.2905 8.62703 11.2909 8.62664C11.2909 8.62664 11.2917 8.62618 11.2921 8.6258L17.0779 2.82066C16.8764 2.72742 16.6542 2.67188 16.418 2.67188Z" fill="#818181"/>
<path d="M0.168258 3.55835C0.0639844 3.76922 0 4.00329 0 4.25402V13.7462C0 13.9969 0.0639141 14.231 0.168223 14.4419L5.59223 9.00029L0.168258 3.55835Z" fill="#818181"/>
<path d="M17.8317 3.55811L12.4078 9.00012L17.8317 14.4418C17.936 14.2309 18 13.9968 18 13.746V4.25385C18 4.00304 17.936 3.76897 17.8317 3.55811Z" fill="#818181"/>
</svg>
