<svg width="132" height="40" viewBox="0 0 132 40" fill="none" xmlns="http://www.w3.org/2000/svg">
<g clip-path="url(#clip0_352_1793)">
<path d="M41.4957 39.7142L29.3451 27.5891C31.0813 25.5255 32.1285 22.867 32.1285 19.9685C32.1285 13.4221 26.7917 8.09457 20.2302 8.09457C13.6687 8.09457 8.33192 13.4208 8.33192 19.9685C8.33192 26.5163 13.6687 31.8425 20.2302 31.8425C22.7652 31.8425 25.116 31.0444 27.0481 29.6901L30.6204 33.2552C27.7528 35.4943 24.1444 36.8295 20.2295 36.8295C10.9141 36.8295 3.33305 29.2648 3.33305 19.9685C3.33305 10.6709 10.9135 3.10556 20.2309 3.10556C29.5482 3.10556 37.1274 10.6702 37.1274 19.9685C37.1274 23.1425 36.2438 26.1139 34.7094 28.6528L36.9643 30.9024C39.0338 27.76 40.2395 24.0023 40.2395 19.9678C40.2401 8.95769 31.264 0 20.2322 0C9.19841 0 0.222229 8.95769 0.222229 19.9685C0.222229 30.9787 9.19841 39.9351 20.2322 39.9351C25.0055 39.9351 29.3937 38.258 32.8372 35.4635L37.0971 39.7148H41.4957V39.7142ZM11.4453 19.9685C11.4453 15.1333 15.3865 11.2001 20.2322 11.2001C25.0772 11.2001 29.0189 15.1333 29.0189 19.9685C29.0189 24.8037 25.0779 28.7369 20.2322 28.7369C15.3865 28.7363 11.4453 24.8017 11.4453 19.9685Z" fill="#D9552B"/>
<path fill-rule="evenodd" clip-rule="evenodd" d="M56.0665 25.5215C57.5858 27.0263 59.4811 27.7889 61.6991 27.7889C63.5582 27.7889 65.2268 27.2261 66.6586 26.1151L67.972 27.5397H69.4952L67.4744 25.3775C68.9003 23.853 69.6235 22.0221 69.6235 19.9336C69.6235 17.7458 68.8451 15.8656 67.3101 14.3457C65.7908 12.8258 63.9028 12.0553 61.6998 12.0553C59.4817 12.0553 57.5864 12.8258 56.0665 14.3457C54.5466 15.8656 53.7762 17.7458 53.7762 19.9336C53.7762 22.1214 54.5466 24.0016 56.0665 25.5215ZM56.8995 15.0872C58.1794 13.7784 59.794 13.1144 61.6991 13.1144C63.6043 13.1144 65.2188 13.7784 66.4995 15.0879C67.7795 16.3981 68.4283 18.0285 68.4283 19.9342C68.4283 21.7362 67.8504 23.2929 66.7111 24.5623L63.6148 21.2208L63.5924 21.1965H62.0693L65.919 25.3229C64.6982 26.2572 63.2789 26.7305 61.6991 26.7305C59.7933 26.7305 58.1788 26.0744 56.8995 24.7799C55.6195 23.4698 54.9707 21.8394 54.9707 19.9336C54.9707 18.0127 55.6195 16.3823 56.8995 15.0872Z" fill="white"/>
<path fill-rule="evenodd" clip-rule="evenodd" d="M84.0554 28.0841H84.1034C84.154 28.0841 84.154 28.0841 84.271 27.8422C84.3341 27.71 84.4281 27.5115 84.553 27.2465C84.8021 26.7174 85.1749 25.9232 85.67 24.8648C86.635 22.8019 88.0918 19.6798 90.0009 15.5843L91.3173 27.5398H92.4676L90.7049 11.5374L84.104 25.6294L77.503 11.5374L75.7498 27.4556L75.7405 27.5398H76.891L78.2071 15.5836L84.035 28.04L84.0554 28.0841Z" fill="white"/>
<path fill-rule="evenodd" clip-rule="evenodd" d="M109.063 27.5398H110.315L103.921 11.6807L97.4329 27.5398H98.6853L100.705 22.5725H107.044L109.063 27.5398ZM106.621 21.5134H101.129L103.897 14.6272L106.621 21.5134Z" fill="white"/>
<path fill-rule="evenodd" clip-rule="evenodd" d="M115.659 27.5397H121.028V26.4807H116.809V12.2598H115.659V27.5397Z" fill="white"/>
<path fill-rule="evenodd" clip-rule="evenodd" d="M126.41 27.5397H131.778V26.4807H127.56V12.2598H126.41V27.5397Z" fill="white"/>
</g>
<defs>
<clipPath id="clip0_352_1793">
<rect width="131.556" height="40" fill="white" transform="translate(0.222229)"/>
</clipPath>
</defs>
</svg>
