<svg width="53" height="52" viewBox="0 0 53 52" fill="none" xmlns="http://www.w3.org/2000/svg">
<rect x="0.5" width="52" height="52" rx="12" fill="black" fill-opacity="0.4"/>
<g clip-path="url(#clip0_506_1165)">
<path fill-rule="evenodd" clip-rule="evenodd" d="M18.4717 41.3623C18.4717 41.9514 18.9492 42.429 19.5383 42.429H33.4967C34.0858 42.429 34.5633 41.9514 34.5633 41.3623C34.5633 38.9092 32.5747 36.9206 30.1217 36.9206H22.9133C20.4602 36.9206 18.4717 38.9093 18.4717 41.3623ZM20.8657 40.2956C21.2509 39.5577 22.0233 39.054 22.9133 39.054H30.1217C31.0117 39.054 31.7841 39.5577 32.1693 40.2956H20.8657Z" fill="white"/>
<path fill-rule="evenodd" clip-rule="evenodd" d="M23.1833 12.8877C23.1833 14.7194 24.6683 16.2043 26.5 16.2043C28.3317 16.2043 29.8167 14.7194 29.8167 12.8877C29.8167 11.056 28.3317 9.57101 26.5 9.57101C24.6683 9.57101 23.1833 11.056 23.1833 12.8877ZM26.5 14.071C25.8465 14.071 25.3167 13.5412 25.3167 12.8877C25.3167 12.2342 25.8465 11.7043 26.5 11.7043C27.1535 11.7043 27.6833 12.2342 27.6833 12.8877C27.6833 13.5412 27.1535 14.071 26.5 14.071Z" fill="white"/>
<path fill-rule="evenodd" clip-rule="evenodd" d="M23.9508 37.9873C23.9508 38.5764 24.4284 39.054 25.0175 39.054H28.0175C28.6066 39.054 29.0842 38.5764 29.0842 37.9873V14.6853C29.0842 14.0962 28.6066 13.6186 28.0175 13.6186C27.4284 13.6186 26.9508 14.0962 26.9508 14.6853V36.9206H26.0842V14.6853C26.0842 14.0962 25.6066 13.6186 25.0175 13.6186C24.4284 13.6186 23.9508 14.0962 23.9508 14.6853V37.9873Z" fill="white"/>
<path fill-rule="evenodd" clip-rule="evenodd" d="M34.0047 15.752C34.4145 16.6785 35.3418 17.325 36.42 17.325C37.8779 17.325 39.0597 16.1431 39.0597 14.6853C39.0597 14.0962 38.5821 13.6186 37.993 13.6186C37.4039 13.6186 36.9263 14.0962 36.9263 14.6853C36.9263 14.9649 36.6996 15.1916 36.42 15.1916C36.1404 15.1916 35.9137 14.9649 35.9137 14.6853C35.9137 14.0962 35.4361 13.6186 34.847 13.6186H28.0175C27.4284 13.6186 26.9508 14.0962 26.9508 14.6853C26.9508 15.2744 27.4284 15.752 28.0175 15.752H34.0047Z" fill="white"/>
<path fill-rule="evenodd" clip-rule="evenodd" d="M16.58 15.1916C16.3004 15.1916 16.0737 14.9649 16.0737 14.6853C16.0737 14.0962 15.5961 13.6186 15.007 13.6186C14.4179 13.6186 13.9403 14.0962 13.9403 14.6853C13.9403 16.1431 15.1222 17.325 16.58 17.325C17.6583 17.325 18.5855 16.6785 18.9953 15.752H24.9825C25.5716 15.752 26.0492 15.2744 26.0492 14.6853C26.0492 14.0962 25.5716 13.6186 24.9825 13.6186H18.153C17.5639 13.6186 17.0863 14.0962 17.0863 14.6853C17.0863 14.9649 16.8597 15.1916 16.58 15.1916Z" fill="white"/>
<path fill-rule="evenodd" clip-rule="evenodd" d="M12.2189 26.2477L16.58 18.4447L20.9411 26.2477C20.808 28.0223 19.3261 29.4206 17.5175 29.4206H15.6425C13.8339 29.4206 12.352 28.0223 12.2189 26.2477ZM10.0758 25.9873C10.0758 29.0617 12.5681 31.554 15.6425 31.554H17.5175C20.5919 31.554 23.0842 29.0617 23.0842 25.9873C23.0842 25.8051 23.0375 25.6259 22.9486 25.4669L17.5111 15.7379C17.3226 15.4006 16.9664 15.1916 16.58 15.1916C16.1936 15.1916 15.8374 15.4006 15.6489 15.7379L10.2114 25.4669C10.1225 25.6259 10.0758 25.8051 10.0758 25.9873Z" fill="white"/>
<path fill-rule="evenodd" clip-rule="evenodd" d="M32.0589 26.2477L36.42 18.4447L40.7811 26.2477C40.648 28.0223 39.1661 29.4206 37.3575 29.4206H35.4825C33.674 29.4206 32.192 28.0223 32.0589 26.2477ZM29.9158 25.9873C29.9158 29.0617 32.4082 31.554 35.4825 31.554H37.3575C40.4319 31.554 42.9242 29.0617 42.9242 25.9873C42.9242 25.8051 42.8775 25.6259 42.7886 25.4669L37.3511 15.7379C37.1626 15.4006 36.8064 15.1916 36.42 15.1916C36.0336 15.1916 35.6774 15.4006 35.4889 15.7379L30.0514 25.4669C29.9625 25.6259 29.9158 25.8051 29.9158 25.9873Z" fill="white"/>
<path fill-rule="evenodd" clip-rule="evenodd" d="M10.3121 25.9873C10.3121 26.5764 10.7896 27.054 11.3787 27.054H21.7812C22.3703 27.054 22.8479 26.5764 22.8479 25.9873C22.8479 25.3982 22.3703 24.9206 21.7812 24.9206H11.3787C10.7896 24.9206 10.3121 25.3982 10.3121 25.9873Z" fill="white"/>
<path fill-rule="evenodd" clip-rule="evenodd" d="M10.3121 25.9873C10.3121 26.5764 10.7897 27.054 11.3788 27.054H21.7813C22.3704 27.054 22.8479 26.5764 22.8479 25.9873C22.8479 25.3982 22.3704 24.9206 21.7813 24.9206H11.3788C10.7897 24.9206 10.3121 25.3982 10.3121 25.9873Z" fill="white"/>
<path fill-rule="evenodd" clip-rule="evenodd" d="M30.1483 25.9873C30.1483 26.5764 30.6259 27.054 31.215 27.054H41.625C42.2141 27.054 42.6917 26.5764 42.6917 25.9873C42.6917 25.3982 42.2141 24.9206 41.625 24.9206H31.215C30.6259 24.9206 30.1483 25.3982 30.1483 25.9873Z" fill="white"/>
<path fill-rule="evenodd" clip-rule="evenodd" d="M30.1483 25.9873C30.1483 26.5764 30.6259 27.054 31.215 27.054H41.625C42.2141 27.054 42.6917 26.5764 42.6917 25.9873C42.6917 25.3982 42.2141 24.9206 41.625 24.9206H31.215C30.6259 24.9206 30.1483 25.3982 30.1483 25.9873Z" fill="white"/>
</g>
<defs>
<clipPath id="clip0_506_1165">
<rect width="32" height="32" fill="white" transform="translate(10.5 10)"/>
</clipPath>
</defs>
</svg>
