<svg width="53" height="52" viewBox="0 0 53 52" fill="none" xmlns="http://www.w3.org/2000/svg">
<rect x="0.5" width="52" height="52" rx="12" fill="black" fill-opacity="0.4"/>
<g clip-path="url(#clip0_506_1123)">
<path d="M32.1469 11.8811C30.8346 11.8811 29.7286 12.7811 29.4134 13.9962L18.8178 17.5281H13.3235C11.7666 17.5282 10.5 18.7948 10.5 20.3516V25.9986C10.5 27.5555 11.7666 28.8221 13.3235 28.8221H13.3606L14.3261 37.8495C14.4587 39.0851 15.9772 40.4837 17.773 40.032C19.2574 39.6612 20.1732 38.1706 19.8457 36.6848L19.6407 34.4661C19.6604 34.4674 19.68 34.4691 19.6999 34.4691H20.8528C22.4097 34.4691 23.6763 33.2025 23.6763 31.6456V30.4416L29.4133 32.354C29.7285 33.5692 30.8345 34.4691 32.1468 34.4691C33.7037 34.4691 34.9703 33.2025 34.9703 31.6456V14.7047C34.9704 13.1477 33.7038 11.8811 32.1469 11.8811ZM17.3154 38.2062C16.8344 38.3272 16.3388 38.0514 16.1896 37.5732L15.2537 28.8222H17.2292C18.0295 37.4877 17.9756 36.9606 18.0013 37.0638C18.1271 37.5679 17.8201 38.0802 17.3154 38.2062ZM18.0294 26.9398C17.1947 26.9398 13.9234 26.9398 13.3235 26.9398C12.8046 26.9398 12.3823 26.5176 12.3823 25.9986V20.3516C12.3823 19.8327 12.8045 19.4105 13.3235 19.4105H18.0294V26.9398ZM21.794 31.6457C21.794 32.1646 21.3719 32.5869 20.8529 32.5869H19.7C19.6205 32.5869 19.5437 32.5978 19.47 32.6164L19.1292 28.926L21.794 29.8143V31.6457ZM29.3234 30.3399L19.9117 27.2026V19.1477L29.3234 16.0104V30.3399ZM33.0881 31.6457C33.0881 32.1646 32.6659 32.5869 32.1469 32.5869C31.628 32.5869 31.2057 32.1647 31.2057 31.6457V14.7047C31.2057 14.1857 31.6279 13.7635 32.1469 13.7635C32.6658 13.7635 33.0881 14.1857 33.0881 14.7047V31.6457Z" fill="white"/>
<path d="M41.5586 21.2928H37.7939C37.2742 21.2928 36.8527 21.7142 36.8527 22.234C36.8527 22.7538 37.2741 23.1752 37.7939 23.1752H41.5586C42.0783 23.1752 42.4998 22.7538 42.4998 22.234C42.4998 21.7142 42.0784 21.2928 41.5586 21.2928Z" fill="white"/>
<path d="M42.4004 16.1661C42.168 15.7012 41.6026 15.5127 41.1377 15.7452L37.373 17.6275C36.9081 17.86 36.7196 18.4253 36.9521 18.8903C37.1848 19.3555 37.7502 19.5436 38.2149 19.3112L41.9796 17.4288C42.4445 17.1963 42.6329 16.631 42.4004 16.1661Z" fill="white"/>
<path d="M41.9795 27.0392L38.2148 25.1569C37.75 24.9244 37.1846 25.1128 36.9521 25.5778C36.7197 26.0427 36.9081 26.608 37.373 26.8405L41.1377 28.7228C41.6026 28.9554 42.168 28.7668 42.4004 28.302C42.6328 27.837 42.4445 27.2717 41.9795 27.0392Z" fill="white"/>
</g>
<defs>
<clipPath id="clip0_506_1123">
<rect width="32" height="32" fill="white" transform="translate(10.5 10)"/>
</clipPath>
</defs>
</svg>
