<svg width="53" height="52" viewBox="0 0 53 52" fill="none" xmlns="http://www.w3.org/2000/svg">
<rect x="0.5" width="52" height="52" rx="12" fill="black" fill-opacity="0.4"/>
<g clip-path="url(#clip0_506_1444)">
<path fill-rule="evenodd" clip-rule="evenodd" d="M33.5322 41.7115C33.7409 41.8618 34.009 41.9027 34.253 41.8214L41.753 39.3214C42.0797 39.2125 42.3 38.9068 42.3 38.5625V27.25C42.3 26.9928 42.1764 26.7513 41.9678 26.601C41.7592 26.4506 41.491 26.4097 41.247 26.491L33.747 28.991C33.4204 29.0999 33.2 29.4056 33.2 29.75V41.0625C33.2 41.3196 33.3236 41.5611 33.5322 41.7115ZM34.8 39.9525V30.3266L40.7 28.3599V37.9859L34.8 39.9525Z" fill="white"/>
<path fill-rule="evenodd" clip-rule="evenodd" d="M34.4678 41.7115C34.6764 41.5611 34.8 41.3196 34.8 41.0625V29.75C34.8 29.4056 34.5797 29.0999 34.253 28.991L26.753 26.491C26.509 26.4097 26.2409 26.4506 26.0322 26.601C25.8236 26.7513 25.7 26.9928 25.7 27.25V38.5625C25.7 38.9068 25.9204 39.2125 26.247 39.3214L33.747 41.8214C33.991 41.9027 34.2592 41.8618 34.4678 41.7115ZM27.3 37.9859V28.3599L33.2 30.3266V39.9525L27.3 37.9859Z" fill="white"/>
<path fill-rule="evenodd" clip-rule="evenodd" d="M33.747 30.5089C33.9112 30.5637 34.0888 30.5637 34.253 30.5089L41.753 28.0089C42.0797 27.9 42.3 27.5943 42.3 27.25C42.3 26.9056 42.0797 26.5999 41.753 26.491L34.253 23.991C34.0888 23.9363 33.9112 23.9363 33.747 23.991L26.247 26.491C25.9204 26.5999 25.7 26.9056 25.7 27.25C25.7 27.5943 25.9204 27.9 26.247 28.0089L33.747 30.5089ZM29.0298 27.25L34 25.5933L38.9702 27.25L34 28.9067L29.0298 27.25Z" fill="white"/>
<path fill-rule="evenodd" clip-rule="evenodd" d="M18.5322 41.7115C18.7409 41.8618 19.009 41.9027 19.253 41.8214L26.753 39.3214C27.0797 39.2125 27.3 38.9068 27.3 38.5625V27.25C27.3 26.9928 27.1764 26.7513 26.9678 26.601C26.7592 26.4506 26.491 26.4097 26.247 26.491L18.747 28.991C18.4204 29.0999 18.2 29.4056 18.2 29.75V41.0625C18.2 41.3196 18.3236 41.5611 18.5322 41.7115ZM19.8 39.9525V30.3266L25.7 28.3599V37.9859L19.8 39.9525Z" fill="white"/>
<path fill-rule="evenodd" clip-rule="evenodd" d="M19.4678 41.7115C19.6764 41.5611 19.8 41.3196 19.8 41.0625V29.75C19.8 29.4056 19.5797 29.0999 19.253 28.991L11.753 26.491C11.509 26.4097 11.2409 26.4506 11.0322 26.601C10.8236 26.7513 10.7 26.9928 10.7 27.25V38.5625C10.7 38.9068 10.9204 39.2125 11.247 39.3214L18.747 41.8214C18.991 41.9027 19.2592 41.8618 19.4678 41.7115ZM12.3 37.9859V28.3599L18.2 30.3266V39.9525L12.3 37.9859Z" fill="white"/>
<path fill-rule="evenodd" clip-rule="evenodd" d="M18.747 30.5089C18.9112 30.5637 19.0888 30.5637 19.253 30.5089L26.753 28.0089C27.0797 27.9 27.3 27.5943 27.3 27.25C27.3 26.9056 27.0797 26.5999 26.753 26.491L19.253 23.991C19.0888 23.9363 18.9112 23.9363 18.747 23.991L11.247 26.491C10.9204 26.5999 10.7 26.9056 10.7 27.25C10.7 27.5943 10.9204 27.9 11.247 28.0089L18.747 30.5089ZM14.0298 27.25L19 25.5933L23.9702 27.25L19 28.9067L14.0298 27.25Z" fill="white"/>
<path fill-rule="evenodd" clip-rule="evenodd" d="M26.0322 27.899C26.2409 28.0493 26.509 28.0902 26.753 28.0089L34.253 25.5089C34.5797 25.4 34.8 25.0943 34.8 24.75V13.4375C34.8 13.1803 34.6764 12.9388 34.4678 12.7885C34.2592 12.6381 33.991 12.5972 33.747 12.6785L26.247 15.1785C25.9204 15.2874 25.7 15.5931 25.7 15.9375V27.25C25.7 27.5071 25.8236 27.7486 26.0322 27.899ZM27.3 26.14V16.5141L33.2 14.5474V24.1734L27.3 26.14Z" fill="white"/>
<path fill-rule="evenodd" clip-rule="evenodd" d="M26.9678 27.899C27.1764 27.7486 27.3 27.5071 27.3 27.25V15.9375C27.3 15.5931 27.0797 15.2874 26.753 15.1785L19.253 12.6785C19.009 12.5972 18.7409 12.6381 18.5322 12.7885C18.3236 12.9388 18.2 13.1803 18.2 13.4375V24.75C18.2 25.0943 18.4204 25.4 18.747 25.5089L26.247 28.0089C26.491 28.0902 26.7592 28.0493 26.9678 27.899ZM19.8 24.1734V14.5474L25.7 16.5141V26.14L19.8 24.1734Z" fill="white"/>
<path fill-rule="evenodd" clip-rule="evenodd" d="M26.247 16.6964C26.4112 16.7512 26.5888 16.7512 26.753 16.6964L34.253 14.1964C34.5797 14.0875 34.8 13.7818 34.8 13.4375C34.8 13.0931 34.5797 12.7874 34.253 12.6785L26.753 10.1785C26.5888 10.1238 26.4112 10.1238 26.247 10.1785L18.747 12.6785C18.4204 12.7874 18.2 13.0931 18.2 13.4375C18.2 13.7818 18.4204 14.0875 18.747 14.1964L26.247 16.6964ZM21.5298 13.4375L26.5 11.7808L31.4702 13.4375L26.5 15.0942L21.5298 13.4375Z" fill="white"/>
</g>
<defs>
<clipPath id="clip0_506_1444">
<rect width="32" height="32" fill="white" transform="translate(10.5 10)"/>
</clipPath>
</defs>
</svg>
