<svg width="53" height="52" viewBox="0 0 53 52" fill="none" xmlns="http://www.w3.org/2000/svg">
<rect x="0.5" width="52" height="52" rx="12" fill="black" fill-opacity="0.4"/>
<path d="M13.37 38.56C12.8749 38.5574 12.4007 38.3595 12.0506 38.0094C11.7005 37.6593 11.5026 37.1851 11.5 36.69V21.31C11.5026 20.2844 11.9112 19.3016 12.6364 18.5764C13.3616 17.8512 14.3444 17.4426 15.37 17.44H33.62C34.6473 17.44 35.6327 17.8474 36.36 18.5729C37.0874 19.2984 37.4974 20.2827 37.5 21.31V31.56C37.5 32.5873 37.0926 33.5727 36.3671 34.3C35.6416 35.0274 34.6573 35.4374 33.63 35.44H18.41C18.2371 35.4414 18.0691 35.4974 17.93 35.6L14.5 38.19C14.1729 38.4317 13.7767 38.5614 13.37 38.56ZM15.37 19.44C14.8749 19.4426 14.4007 19.6405 14.0506 19.9906C13.7005 20.3407 13.5026 20.8149 13.5 21.31V36.44L16.73 34C17.216 33.639 17.8046 33.4428 18.41 33.44H33.62C34.1186 33.44 34.5968 33.2419 34.9494 32.8894C35.3019 32.5368 35.5 32.0586 35.5 31.56V21.31C35.4974 20.8149 35.2995 20.3407 34.9494 19.9906C34.5993 19.6405 34.1251 19.4426 33.63 19.44H15.37Z" fill="white"/>
<path d="M28.44 27.53C28.9923 27.53 29.44 27.0823 29.44 26.53C29.44 25.9777 28.9923 25.53 28.44 25.53C27.8877 25.53 27.44 25.9777 27.44 26.53C27.44 27.0823 27.8877 27.53 28.44 27.53Z" fill="white"/>
<path d="M24.56 27.53C25.1123 27.53 25.56 27.0823 25.56 26.53C25.56 25.9777 25.1123 25.53 24.56 25.53C24.0077 25.53 23.56 25.9777 23.56 26.53C23.56 27.0823 24.0077 27.53 24.56 27.53Z" fill="white"/>
<path d="M20.56 27.53C21.1123 27.53 21.56 27.0823 21.56 26.53C21.56 25.9777 21.1123 25.53 20.56 25.53C20.0077 25.53 19.56 25.9777 19.56 26.53C19.56 27.0823 20.0077 27.53 20.56 27.53Z" fill="white"/>
<path d="M40.5 28.44C40.2348 28.44 39.9804 28.3346 39.7929 28.1471C39.6054 27.9596 39.5 27.7052 39.5 27.44V17.31C39.4974 16.8149 39.2995 16.3407 38.9494 15.9906C38.5993 15.6405 38.1251 15.4426 37.63 15.44H17.5C17.2348 15.44 16.9804 15.3346 16.7929 15.1471C16.6054 14.9596 16.5 14.7052 16.5 14.44C16.5 14.1748 16.6054 13.9204 16.7929 13.7329C16.9804 13.5454 17.2348 13.44 17.5 13.44H37.63C38.6556 13.4426 39.6384 13.8512 40.3636 14.5764C41.0888 15.3016 41.4974 16.2844 41.5 17.31V27.44C41.5 27.7052 41.3946 27.9596 41.2071 28.1471C41.0196 28.3346 40.7652 28.44 40.5 28.44Z" fill="white"/>
</svg>
