<svg width="53" height="52" viewBox="0 0 53 52" fill="none" xmlns="http://www.w3.org/2000/svg">
<rect x="0.5" width="52" height="52" rx="12" fill="black" fill-opacity="0.4"/>
<path fill-rule="evenodd" clip-rule="evenodd" d="M16.3 12.6668C14.6036 12.6668 13.1666 14.1037 13.1666 15.8001V21.8001C13.1666 23.4965 14.6036 24.9335 16.3 24.9335H22.3C23.9964 24.9335 25.4333 23.4965 25.4333 21.8001V15.8001C25.4333 14.1037 23.9964 12.6668 22.3 12.6668H16.3ZM15.8333 15.8001C15.8333 15.5765 16.0763 15.3334 16.3 15.3334H22.3C22.5236 15.3334 22.7666 15.5765 22.7666 15.8001V21.8001C22.7666 22.0237 22.5236 22.2668 22.3 22.2668H16.3C16.0763 22.2668 15.8333 22.0237 15.8333 21.8001V15.8001Z" fill="white"/>
<path fill-rule="evenodd" clip-rule="evenodd" d="M30.7 12.6668C29.0036 12.6668 27.5667 14.1037 27.5667 15.8001V21.8001C27.5667 23.4965 29.0036 24.9335 30.7 24.9335H36.7C38.3964 24.9335 39.8333 23.4965 39.8333 21.8001V15.8001C39.8333 14.1037 38.3964 12.6668 36.7 12.6668H30.7ZM30.2333 15.8001C30.2333 15.5765 30.4764 15.3334 30.7 15.3334H36.7C36.9236 15.3334 37.1667 15.5765 37.1667 15.8001V21.8001C37.1667 22.0237 36.9236 22.2668 36.7 22.2668H30.7C30.4764 22.2668 30.2333 22.0237 30.2333 21.8001V15.8001Z" fill="white"/>
<path fill-rule="evenodd" clip-rule="evenodd" d="M13.1666 30.1999C13.1666 28.5035 14.6036 27.0665 16.3 27.0665H22.3C23.9964 27.0665 25.4333 28.5035 25.4333 30.1999V36.1999C25.4333 37.8963 23.9964 39.3332 22.3 39.3332H16.3C14.6036 39.3332 13.1666 37.8963 13.1666 36.1999V30.1999ZM16.3 29.7332C16.0763 29.7332 15.8333 29.9763 15.8333 30.1999V36.1999C15.8333 36.4235 16.0763 36.6665 16.3 36.6665H22.3C22.5236 36.6665 22.7666 36.4235 22.7666 36.1999V30.1999C22.7666 29.9763 22.5236 29.7332 22.3 29.7332H16.3Z" fill="white"/>
<path fill-rule="evenodd" clip-rule="evenodd" d="M30.7 27.0665C29.0036 27.0665 27.5667 28.5035 27.5667 30.1999V36.1999C27.5667 37.8963 29.0036 39.3332 30.7 39.3332H36.7C38.3964 39.3332 39.8333 37.8963 39.8333 36.1999V30.1999C39.8333 28.5035 38.3964 27.0665 36.7 27.0665H30.7ZM30.2333 30.1999C30.2333 29.9763 30.4764 29.7332 30.7 29.7332H36.7C36.9236 29.7332 37.1667 29.9763 37.1667 30.1999V36.1999C37.1667 36.4235 36.9236 36.6665 36.7 36.6665H30.7C30.4764 36.6665 30.2333 36.4235 30.2333 36.1999V30.1999Z" fill="white"/>
</svg>
