<svg width="53" height="52" viewBox="0 0 53 52" fill="none" xmlns="http://www.w3.org/2000/svg">
<rect x="0.5" width="52" height="52" rx="12" fill="black" fill-opacity="0.4"/>
<g clip-path="url(#clip0_506_1402)">
<path d="M42.4623 12.389C42.393 11.1179 41.382 10.1071 40.1109 10.0377C37.546 9.89755 32.527 10.0339 27.7278 12.5162C25.2812 13.7817 22.6937 15.9272 20.6288 18.4027C20.6033 18.4332 20.5786 18.4639 20.5533 18.4945L15.8671 18.8565C15.0957 18.9161 14.4086 19.3204 13.982 19.9657L10.7849 24.8014C10.4613 25.2908 10.4099 25.9032 10.6472 26.4397C10.8846 26.9762 11.3723 27.3501 11.952 27.4399L15.9002 28.0514C15.8863 28.1281 15.8723 28.2048 15.8595 28.2816C15.728 29.0678 15.9885 29.8762 16.5564 30.444L22.0559 35.9436C22.5267 36.4144 23.1629 36.6739 23.8148 36.6739C23.949 36.6739 24.084 36.6629 24.2184 36.6404C24.2951 36.6276 24.3718 36.6136 24.4486 36.5997L25.0601 40.5479C25.1499 41.1276 25.5238 41.6154 26.0601 41.8527C26.2833 41.9515 26.5195 42.0002 26.7546 42.0002C27.0848 42.0002 27.4127 41.9041 27.6985 41.7151L32.5342 38.5179C33.1795 38.0912 33.5838 37.4042 33.6433 36.6329L34.0053 31.9467C34.0358 31.9214 34.0666 31.8967 34.0971 31.8712C36.5726 29.8063 38.7183 27.2188 39.9837 24.7722C42.4661 19.9727 42.6022 14.9537 42.4623 12.389ZM31.5001 36.9538L26.8745 40.0121L26.2785 36.1643C28.2335 35.5895 30.1674 34.6689 32.0098 33.4356L31.774 36.4884C31.7593 36.6788 31.6595 36.8485 31.5001 36.9538ZM23.3817 34.6177L17.8821 29.1182C17.7418 28.9778 17.677 28.7806 17.7088 28.5907C17.8723 27.613 18.1263 26.6823 18.4408 25.8056L26.6926 34.0573C25.6396 34.4345 24.6964 34.6595 23.9092 34.7911C23.719 34.8227 23.522 34.7581 23.3817 34.6177ZM16.0115 20.7259L19.0643 20.4901C17.8309 22.3326 16.9103 24.2665 16.3355 26.2215L12.4877 25.6256L15.5461 20.9998C15.6515 20.8404 15.8211 20.7406 16.0115 20.7259ZM32.8962 30.4313C31.3816 31.6946 29.9115 32.6084 28.5563 33.2696L19.23 23.9432C20.0961 22.1742 21.1532 20.7012 22.0686 19.6038C23.9795 17.3129 26.3562 15.3366 28.5893 14.1816C32.9939 11.9032 37.6346 11.7806 40.0088 11.9098C40.3231 11.9269 40.573 12.1769 40.5901 12.4912C40.7196 14.8654 40.5966 19.5061 38.3183 23.9107C37.1634 26.1437 35.1871 28.5204 32.8962 30.4313Z" fill="white"/>
<path d="M32.4201 24.7652C33.6202 24.7651 34.8208 24.3082 35.7345 23.3945C36.6199 22.5092 37.1074 21.3321 37.1074 20.0801C37.1074 18.8281 36.6198 17.6509 35.7345 16.7656C33.9069 14.9379 30.9331 14.9381 29.1056 16.7656C28.2202 17.6509 27.7327 18.8281 27.7327 20.0801C27.7327 21.3321 28.2203 22.5092 29.1056 23.3945C30.0195 24.3084 31.2195 24.7653 32.4201 24.7652ZM30.4313 18.0914C30.9796 17.5431 31.6997 17.2689 32.4199 17.2689C33.1402 17.2689 33.8604 17.5431 34.4086 18.0914C34.9398 18.6226 35.2323 19.3288 35.2323 20.08C35.2323 20.8312 34.9398 21.5375 34.4086 22.0687C33.3121 23.1652 31.5278 23.1652 30.4312 22.0687C29.9001 21.5375 29.6075 20.8312 29.6075 20.0801C29.6075 19.3289 29.9001 18.6226 30.4313 18.0914Z" fill="white"/>
<path d="M11.4563 36.3711C11.6963 36.3711 11.9362 36.2796 12.1192 36.0965L15.18 33.0357C15.5461 32.6696 15.5461 32.076 15.18 31.7099C14.8139 31.3437 14.2203 31.3437 13.8542 31.7099L10.7934 34.7707C10.4273 35.1368 10.4273 35.7304 10.7934 36.0965C10.9764 36.2796 11.2164 36.3711 11.4563 36.3711Z" fill="white"/>
<path d="M17.9851 34.515C17.619 34.1488 17.0254 34.1488 16.6592 34.515L10.7746 40.3996C10.4085 40.7658 10.4085 41.3593 10.7746 41.7254C10.9577 41.9085 11.1976 42 11.4375 42C11.6774 42 11.9174 41.9085 12.1004 41.7254L17.985 35.8408C18.3512 35.4746 18.3512 34.8811 17.9851 34.515Z" fill="white"/>
<path d="M19.4643 37.32L16.4035 40.3808C16.0374 40.7469 16.0374 41.3405 16.4035 41.7066C16.5866 41.8897 16.8265 41.9813 17.0664 41.9813C17.3062 41.9813 17.5462 41.8898 17.7292 41.7066L20.7901 38.6458C21.1562 38.2797 21.1562 37.6861 20.7901 37.32C20.424 36.9539 19.8304 36.9539 19.4643 37.32Z" fill="white"/>
</g>
<defs>
<clipPath id="clip0_506_1402">
<rect width="32" height="32" fill="white" transform="translate(10.5 10)"/>
</clipPath>
</defs>
</svg>
