<svg width="140" height="28" viewBox="0 0 140 28" fill="none" xmlns="http://www.w3.org/2000/svg">
<path fill-rule="evenodd" clip-rule="evenodd" d="M1.47105 23.5789C0.658611 23.5789 0 22.9192 0 22.1053V5.89474C0 5.08084 0.658611 4.42105 1.47105 4.42105H2.39045C3.20289 4.42105 3.8615 3.76126 3.8615 2.94737V1.47368C3.8615 0.659791 4.52011 0 5.33255 0H15.2621C16.0746 0 16.7332 0.659791 16.7332 1.47368V2.94737C16.7332 3.76126 17.3918 4.42105 18.2042 4.42105H19.1236C19.9361 4.42105 20.5947 5.08084 20.5947 5.89474V22.1053C20.5947 22.9192 19.9361 23.5789 19.1236 23.5789H18.2042C17.3918 23.5789 16.7332 24.2387 16.7332 25.0526V26.5263C16.7332 27.3402 16.0746 28 15.2621 28H5.33255C4.52011 28 3.8615 27.3402 3.8615 26.5263V25.0526C3.8615 24.2387 3.20289 23.5789 2.39045 23.5789H1.47105ZM16.1815 5.89474C16.1815 5.08084 15.5229 4.42105 14.7105 4.42105H5.88419C5.07176 4.42105 4.41315 5.08084 4.41315 5.89474V22.1053C4.41315 22.9192 5.07176 23.5789 5.88419 23.5789H14.7105C15.5229 23.5789 16.1815 22.9192 16.1815 22.1053V5.89474Z" fill="black"/>
<path fill-rule="evenodd" clip-rule="evenodd" d="M1.47105 23.5789C0.658611 23.5789 0 22.9192 0 22.1053V5.89474C0 5.08084 0.658611 4.42105 1.47105 4.42105H2.39045C3.20289 4.42105 3.8615 3.76126 3.8615 2.94737V1.47368C3.8615 0.659791 4.52011 0 5.33255 0H15.2621C16.0746 0 16.7332 0.659791 16.7332 1.47368V2.94737C16.7332 3.76126 17.3918 4.42105 18.2042 4.42105H19.1236C19.9361 4.42105 20.5947 5.08084 20.5947 5.89474V22.1053C20.5947 22.9192 19.9361 23.5789 19.1236 23.5789H18.2042C17.3918 23.5789 16.7332 24.2387 16.7332 25.0526V26.5263C16.7332 27.3402 16.0746 28 15.2621 28H5.33255C4.52011 28 3.8615 27.3402 3.8615 26.5263V25.0526C3.8615 24.2387 3.20289 23.5789 2.39045 23.5789H1.47105ZM16.1815 5.89474C16.1815 5.08084 15.5229 4.42105 14.7105 4.42105H5.88419C5.07176 4.42105 4.41315 5.08084 4.41315 5.89474V22.1053C4.41315 22.9192 5.07176 23.5789 5.88419 23.5789H14.7105C15.5229 23.5789 16.1815 22.9192 16.1815 22.1053V5.89474Z" fill="url(#paint0_linear_150_6414)"/>
<path d="M37.6293 9.45821C37.7718 9.24042 37.8238 8.97566 37.7742 8.72016L37.7012 8.34445C37.61 7.8744 37.1984 7.53499 36.7196 7.53499H29.0667C28.5144 7.53499 28.0667 7.9827 28.0667 8.53499V9.3446C28.0667 9.89688 28.5144 10.3446 29.0667 10.3446H31.1899C31.9841 10.3446 32.4613 11.2257 32.0275 11.8909L27.825 18.3349C27.6842 18.5508 27.6322 18.8126 27.6799 19.0659L27.7597 19.4907C27.8486 19.9635 28.2615 20.3059 28.7425 20.3059H36.7747C37.3269 20.3059 37.7747 19.8582 37.7747 19.3059V18.4963C37.7747 17.944 37.3269 17.4963 36.7747 17.4963H34.2193C33.4245 17.4963 32.9473 16.6139 33.3825 15.9488L37.6293 9.45821Z" fill="#ECECEC"/>
<path d="M45.3622 7.20294C42.0835 7.20294 39.2915 9.52726 39.2915 13.946C39.2915 18.5691 42.3909 20.6635 45.7976 20.6635C47.0808 20.6635 48.4977 20.4634 49.535 20.1171C49.9438 19.9807 50.1621 19.5582 50.101 19.1316L49.9948 18.3904C49.9044 17.7597 49.2521 17.3702 48.6295 17.5057C47.9959 17.6435 47.3292 17.7262 46.7454 17.7262C45.2209 17.7262 43.9718 17.1311 43.2821 15.9761C42.9531 15.4252 43.4374 14.8144 44.0792 14.8144H50.1015C50.6114 14.8144 51.0448 14.4301 51.0651 13.9205C51.2221 9.97152 49.3694 7.20294 45.3622 7.20294ZM45.3878 9.93593C46.4158 9.93593 47.1386 10.4684 47.4739 11.51C47.652 12.0633 47.1723 12.5667 46.591 12.5667H44.0088C43.3816 12.5667 42.8978 11.9837 43.1812 11.4241C43.6318 10.5343 44.3898 9.93593 45.3878 9.93593Z" fill="#ECECEC"/>
<path d="M61.8461 8.26594C61.8825 7.69002 61.4213 7.19849 60.8556 7.3125C59.9341 7.49821 58.9773 7.91625 58.0673 8.53772C57.6376 8.83115 57.015 8.60448 56.9317 8.09087C56.8797 7.77043 56.603 7.53499 56.2784 7.53499H54.6909C54.1387 7.53499 53.6909 7.9827 53.6909 8.53499V19.3059C53.6909 19.8582 54.1387 20.3059 54.6909 20.3059H56.3282C56.8805 20.3059 57.3282 19.8582 57.3282 19.3059V12.4816C57.3282 12.1513 57.4884 11.8363 57.7802 11.6815C58.7321 11.1763 59.8451 10.9706 60.745 10.8949C61.271 10.8506 61.7086 10.4452 61.7418 9.91843L61.8461 8.26594Z" fill="#ECECEC"/>
<path d="M69.4575 7.20294C65.4873 7.20294 63.1051 10.1147 63.1051 13.9205C63.1051 17.7518 65.4617 20.638 69.4575 20.638C73.4534 20.638 75.8356 17.7518 75.8356 13.9205C75.8356 10.1147 73.4534 7.20294 69.4575 7.20294ZM69.4575 9.98701C71.0969 9.98701 72.1727 11.4174 72.1727 13.9205C72.1727 16.398 71.0969 17.8539 69.4575 17.8539C67.8182 17.8539 66.768 16.398 66.768 13.9205C66.768 11.4174 67.8182 9.98701 69.4575 9.98701Z" fill="#ECECEC"/>
<path d="M82.5606 7.20294C79.3588 7.20294 77.4121 8.58221 77.4121 10.9321C77.4121 12.7966 78.5391 13.7161 81.3567 15.1465C83.1498 16.0149 83.7901 16.3725 83.7901 17.0366C83.7901 17.7262 83.1498 18.0072 82.1252 18.0072C81.3014 18.0072 80.2022 17.77 79.2039 17.4265C78.583 17.2128 77.8769 17.566 77.7501 18.2103L77.6285 18.8283C77.5334 19.3114 77.8033 19.7949 78.2721 19.9456C79.7401 20.4176 81.0151 20.638 82.2532 20.638C85.3782 20.638 87.2737 19.2587 87.2737 16.9855C87.2737 14.9932 85.8137 13.6906 82.7912 12.2347C81.536 11.6728 80.8188 11.3663 80.8188 10.8044C80.8188 10.0892 81.4848 9.83376 82.5606 9.83376C83.3536 9.83376 84.2638 10.0038 85.0575 10.2273C85.6691 10.3995 86.334 10.0382 86.4514 9.41381L86.5864 8.69565C86.6846 8.17361 86.3578 7.66351 85.8367 7.56062C84.6715 7.33057 83.5121 7.20294 82.5606 7.20294Z" fill="#ECECEC"/>
<path d="M97.4783 18.5767C97.3788 17.9696 96.7571 17.6044 96.1454 17.6702C95.9333 17.693 95.7413 17.7007 95.5724 17.7007C94.3173 17.7007 93.9075 16.8067 93.9075 14.8655V11.3446C93.9075 10.7923 94.3552 10.3446 94.9075 10.3446H96.4167C96.969 10.3446 97.4167 9.89688 97.4167 9.3446V8.53499C97.4167 7.98271 96.969 7.53499 96.4167 7.53499H94.9075C94.3552 7.53499 93.9075 7.08727 93.9075 6.53499V5.46323C93.9075 4.83953 93.3428 4.36801 92.7291 4.47927L91.0662 4.78075C90.5905 4.867 90.2446 5.28124 90.2446 5.76471V6.71532C90.2446 7.16801 89.8776 7.53499 89.4249 7.53499C88.9722 7.53499 88.6053 7.90197 88.6053 8.35466V9.52493C88.6053 9.97762 88.9722 10.3446 89.4249 10.3446C89.8776 10.3446 90.2446 10.7116 90.2446 11.1643V14.7633C90.2446 18.7479 91.5253 20.638 94.471 20.638C95.3013 20.638 96.0705 20.5619 96.9318 20.3276C97.3967 20.2011 97.6675 19.7312 97.5896 19.2557L97.4783 18.5767Z" fill="#ECECEC"/>
<path d="M105.881 7.20294C104.64 7.20294 103.141 7.36886 101.462 7.74767C100.948 7.86348 100.63 8.37084 100.729 8.88781L100.88 9.67567C100.992 10.2631 101.592 10.6199 102.172 10.4756C103.324 10.1893 104.482 10.0126 105.24 10.0126C106.518 10.0126 106.865 10.4932 106.953 11.5432C106.998 12.0725 106.566 12.5102 106.037 12.5588C102.242 12.9076 99.2209 14.1169 99.2209 16.8322C99.2209 19.3609 101.116 20.638 103.294 20.638C104.473 20.638 105.705 20.2926 106.732 19.6303C107.029 19.4382 107.453 19.5862 107.522 19.9338C107.566 20.1502 107.756 20.3059 107.977 20.3059H109.645C110.197 20.3059 110.645 19.8582 110.645 19.3059V12.8477C110.645 10.4468 110.799 7.20294 105.881 7.20294ZM104.267 18.0583C103.319 18.0583 102.705 17.573 102.705 16.8067C102.705 15.5789 104.107 14.9869 105.93 14.7549C106.499 14.6825 106.982 15.1441 106.982 15.7181V16.3089C106.982 16.5631 106.888 16.8111 106.7 16.9819C105.992 17.6244 105.1 18.0583 104.267 18.0583Z" fill="#ECECEC"/>
<path d="M126.991 8.53499C126.991 7.98271 126.543 7.53499 125.991 7.53499H122.158C122.05 7.53499 121.944 7.51704 121.841 7.4862C121.19 7.2906 120.475 7.20294 119.716 7.20294C116.437 7.20294 113.978 9.09305 113.978 11.9282C113.978 12.7659 114.182 13.5083 114.564 14.1389C114.856 14.622 114.86 15.2601 114.517 15.7084C114.005 16.3766 113.799 16.9748 113.799 17.573C113.799 17.871 113.853 18.136 113.951 18.3728C114.244 19.0796 114.314 20.0785 113.854 20.6904C113.418 21.2714 113.261 21.8635 113.261 22.4004C113.261 24.9546 116.437 26.3594 119.844 26.3594C123.046 26.3594 126.145 24.8779 126.145 22.0173C126.145 18.9522 122.226 18.2115 119.434 17.8028C117.821 17.573 116.745 17.3431 116.745 16.7812C116.745 16.7303 116.753 16.6774 116.771 16.6218C116.888 16.269 117.346 16.2287 117.706 16.3204C118.325 16.478 118.998 16.5513 119.716 16.5513C123.02 16.5513 125.3 14.7889 125.3 11.9282C125.3 11.7711 125.294 11.6161 125.281 11.4635C125.236 10.909 125.635 10.3446 126.191 10.3446C126.633 10.3446 126.991 9.98674 126.991 9.54531V8.53499ZM119.742 13.9715C118.333 13.9715 117.308 13.1798 117.308 11.8516C117.308 10.5745 118.307 9.78268 119.69 9.78268C121.074 9.78268 122.098 10.5745 122.098 11.9027C122.098 13.2053 121.125 13.9715 119.742 13.9715ZM122.534 22.0683C122.534 23.2433 121.227 23.7796 119.767 23.7796C118.256 23.7796 116.796 23.2177 116.796 22.0428C116.796 21.599 117.067 21.0973 117.726 20.5881C117.928 20.4314 118.192 20.3825 118.446 20.4171C118.596 20.4375 118.746 20.4575 118.896 20.4847C120.869 20.7657 122.534 21.0211 122.534 22.0683Z" fill="#ECECEC"/>
<path d="M134.288 7.20294C131.009 7.20294 128.217 9.52726 128.217 13.946C128.217 18.5691 131.317 20.6635 134.723 20.6635C136.007 20.6635 137.423 20.4634 138.461 20.1171C138.87 19.9807 139.088 19.5582 139.027 19.1316L138.921 18.3904C138.83 17.7597 138.178 17.3702 137.555 17.5057C136.922 17.6435 136.255 17.7262 135.671 17.7262C134.147 17.7262 132.898 17.1311 132.208 15.9761C131.879 15.4252 132.363 14.8144 133.005 14.8144H139.027C139.537 14.8144 139.971 14.4301 139.991 13.9205C140.148 9.97152 138.295 7.20294 134.288 7.20294ZM134.314 9.93593C135.342 9.93593 136.064 10.4684 136.4 11.51C136.578 12.0633 136.098 12.5667 135.517 12.5667H132.935C132.307 12.5667 131.824 11.9837 132.107 11.4241C132.558 10.5343 133.316 9.93593 134.314 9.93593Z" fill="#ECECEC"/>
<defs>
<linearGradient id="paint0_linear_150_6414" x1="20.5947" y1="-0.434108" x2="-4.01344" y2="23.9496" gradientUnits="userSpaceOnUse">
<stop stop-color="#3CFA64"/>
<stop offset="0.478241" stop-color="#1293E6"/>
<stop offset="1" stop-color="#9016F0"/>
</linearGradient>
</defs>
</svg>
