<svg width="134" height="27" viewBox="0 0 134 27" fill="none" xmlns="http://www.w3.org/2000/svg">
<path fill-rule="evenodd" clip-rule="evenodd" d="M1.408 22.7368C0.630385 22.7368 0 22.1006 0 21.3158V5.68421C0 4.89938 0.630385 4.26316 1.408 4.26316H2.28801C3.06562 4.26316 3.69601 3.62693 3.69601 2.84211V1.42105C3.69601 0.636227 4.32639 0 5.10401 0H14.608C15.3857 0 16.016 0.636227 16.016 1.42105V2.84211C16.016 3.62693 16.6464 4.26316 17.424 4.26316H18.304C19.0817 4.26316 19.712 4.89938 19.712 5.68421V21.3158C19.712 22.1006 19.0817 22.7368 18.304 22.7368H17.424C16.6464 22.7368 16.016 23.3731 16.016 24.1579V25.5789C16.016 26.3638 15.3857 27 14.608 27H5.10401C4.32639 27 3.69601 26.3638 3.69601 25.5789V24.1579C3.69601 23.3731 3.06562 22.7368 2.28801 22.7368H1.408ZM15.488 5.68421C15.488 4.89938 14.8577 4.26316 14.08 4.26316H5.63201C4.8544 4.26316 4.22401 4.89938 4.22401 5.68421V21.3158C4.22401 22.1006 4.8544 22.7368 5.63201 22.7368H14.08C14.8577 22.7368 15.488 22.1006 15.488 21.3158V5.68421Z" fill="black"/>
<path fill-rule="evenodd" clip-rule="evenodd" d="M1.408 22.7368C0.630385 22.7368 0 22.1006 0 21.3158V5.68421C0 4.89938 0.630385 4.26316 1.408 4.26316H2.28801C3.06562 4.26316 3.69601 3.62693 3.69601 2.84211V1.42105C3.69601 0.636227 4.32639 0 5.10401 0H14.608C15.3857 0 16.016 0.636227 16.016 1.42105V2.84211C16.016 3.62693 16.6464 4.26316 17.424 4.26316H18.304C19.0817 4.26316 19.712 4.89938 19.712 5.68421V21.3158C19.712 22.1006 19.0817 22.7368 18.304 22.7368H17.424C16.6464 22.7368 16.016 23.3731 16.016 24.1579V25.5789C16.016 26.3638 15.3857 27 14.608 27H5.10401C4.32639 27 3.69601 26.3638 3.69601 25.5789V24.1579C3.69601 23.3731 3.06562 22.7368 2.28801 22.7368H1.408ZM15.488 5.68421C15.488 4.89938 14.8577 4.26316 14.08 4.26316H5.63201C4.8544 4.26316 4.22401 4.89938 4.22401 5.68421V21.3158C4.22401 22.1006 4.8544 22.7368 5.63201 22.7368H14.08C14.8577 22.7368 15.488 22.1006 15.488 21.3158V5.68421Z" fill="url(#paint0_linear_247_2610)"/>
<path d="M36.0097 9.13097C36.1506 8.91408 36.202 8.65106 36.153 8.39712L36.0913 8.0767C36.0006 7.60602 35.5887 7.26588 35.1094 7.26588H27.8639C27.3116 7.26588 26.8638 7.7136 26.8638 8.26588V8.97515C26.8638 9.52743 27.3116 9.97515 27.8638 9.97515H29.7816C30.5742 9.97515 31.0517 10.8532 30.621 11.5186L26.6393 17.6696C26.5001 17.8846 26.4487 18.1448 26.4957 18.3965L26.5644 18.7642C26.6527 19.2376 27.0658 19.5807 27.5474 19.5807H35.1557C35.708 19.5807 36.1557 19.133 36.1557 18.5807V17.8715C36.1557 17.3192 35.708 16.8715 35.1557 16.8715H32.8245C32.0313 16.8715 31.5538 15.9921 31.9859 15.3268L36.0097 9.13097Z" fill="#ECECEC"/>
<path d="M43.4181 6.9457C40.2799 6.9457 37.6076 9.187 37.6076 13.4479C37.6076 17.9059 40.5741 19.9255 43.8349 19.9255C45.0525 19.9255 46.396 19.7359 47.3864 19.4072C47.7941 19.272 48.011 18.8509 47.9506 18.4257L47.859 17.782C47.7691 17.1497 47.1144 16.7594 46.4899 16.8925C45.9001 17.0182 45.2838 17.0931 44.742 17.0931C43.2994 17.0931 42.1144 16.5322 41.4498 15.4433C41.1158 14.896 41.6006 14.2853 42.2417 14.2853H47.9152C48.4254 14.2853 48.8591 13.9003 48.8778 13.3905C49.0166 9.60001 47.2425 6.9457 43.4181 6.9457ZM43.4426 9.58107C44.4146 9.58107 45.1016 10.0822 45.4275 11.0626C45.6107 11.614 45.1298 12.1179 44.5487 12.1179H42.1729C41.5462 12.1179 41.0617 11.5348 41.3498 10.9783C41.7833 10.1412 42.5014 9.58107 43.4426 9.58107Z" fill="#ECECEC"/>
<path d="M59.1932 8.00822C59.2293 7.43247 58.7679 6.94124 58.2035 7.06046C57.337 7.24348 56.4391 7.64176 55.5843 8.22896C55.1714 8.51255 54.5711 8.29477 54.4915 7.80025C54.4419 7.4923 54.1761 7.26588 53.8642 7.26588H52.3899C51.8376 7.26588 51.3899 7.7136 51.3899 8.26588V18.5807C51.3899 19.133 51.8376 19.5807 52.3899 19.5807H53.8713C54.4236 19.5807 54.8713 19.133 54.8713 18.5807V12.0525C54.8713 11.7234 55.0302 11.4092 55.321 11.2551C56.2141 10.7821 57.2527 10.5846 58.1014 10.5093C58.6273 10.4626 59.0649 10.0572 59.0979 9.53027L59.1932 8.00822Z" fill="#ECECEC"/>
<path d="M66.4808 6.9457C62.6807 6.9457 60.4006 9.75348 60.4006 13.4233C60.4006 17.1178 62.6562 19.9009 66.4808 19.9009C70.3054 19.9009 72.5855 17.1178 72.5855 13.4233C72.5855 9.75348 70.3054 6.9457 66.4808 6.9457ZM66.4808 9.63033C68.0499 9.63033 69.0796 11.0096 69.0796 13.4233C69.0796 15.8124 68.0499 17.2163 66.4808 17.2163C64.9117 17.2163 63.9065 15.8124 63.9065 13.4233C63.9065 11.0096 64.9117 9.63033 66.4808 9.63033Z" fill="#ECECEC"/>
<path d="M79.0223 6.9457C75.9577 6.9457 74.0944 8.2757 74.0944 10.5416C74.0944 12.3396 75.1732 13.2263 77.87 14.6055C79.5862 15.4429 80.1991 15.7878 80.1991 16.4281C80.1991 17.0931 79.5862 17.3641 78.6055 17.3641C77.8327 17.3641 76.8066 17.1443 75.8665 16.8237C75.2433 16.6112 74.5341 16.9653 74.4079 17.6116L74.3068 18.1289C74.2127 18.6107 74.4813 19.0928 74.9486 19.2433C76.3407 19.6915 77.5518 19.9009 78.7281 19.9009C81.7192 19.9009 83.5334 18.5709 83.5334 16.3789C83.5334 14.4578 82.136 13.2016 79.243 11.7977C78.0416 11.2559 77.3552 10.9603 77.3552 10.4185C77.3552 9.72885 77.9926 9.48255 79.0223 9.48255C79.7631 9.48255 80.6107 9.63871 81.3573 9.84657C81.971 10.0174 82.6385 9.65524 82.7554 9.02907L82.8698 8.41571C82.9671 7.89471 82.6413 7.38578 82.1213 7.28334C81.0185 7.06609 79.923 6.9457 79.0223 6.9457Z" fill="#ECECEC"/>
<path d="M93.3081 17.9588C93.209 17.3502 92.585 16.9848 91.9713 17.0446C91.7894 17.0623 91.6238 17.0685 91.4765 17.0685C90.2752 17.0685 89.8829 16.2065 89.8829 14.3346V10.9751C89.8829 10.4229 90.3306 9.97515 90.8829 9.97515H92.2417C92.794 9.97515 93.2417 9.52743 93.2417 8.97515V8.26588C93.2417 7.7136 92.794 7.26588 92.2417 7.26588H90.8829C90.3306 7.26588 89.8829 6.81817 89.8829 6.26588V5.31248C89.8829 4.68825 89.3173 4.21659 88.7032 4.32876L87.1973 4.60382C86.7222 4.6906 86.377 5.10456 86.377 5.58754V6.48134C86.377 6.91463 86.0257 7.26588 85.5924 7.26588C85.1592 7.26588 84.8079 7.61713 84.8079 8.05042V9.19061C84.8079 9.6239 85.1592 9.97515 85.5924 9.97515C86.0257 9.97515 86.377 10.3264 86.377 10.7597V14.2361C86.377 18.0783 87.6028 19.9009 90.4223 19.9009C91.207 19.9009 91.9347 19.8294 92.7466 19.6101C93.2105 19.4847 93.48 19.0157 93.4029 18.5415L93.3081 17.9588Z" fill="#ECECEC"/>
<path d="M101.343 6.9457C100.165 6.9457 98.7421 7.10332 97.149 7.46288C96.6368 7.57849 96.3195 8.0846 96.4175 8.60049L96.5479 9.28652C96.6598 9.8755 97.2613 10.2331 97.8433 10.0891C98.9297 9.82027 100.015 9.65496 100.73 9.65496C101.94 9.65496 102.277 10.1083 102.367 11.098C102.415 11.6269 101.981 12.0641 101.453 12.114C97.8387 12.4552 94.9686 13.6223 94.9686 16.2311C94.9686 18.6694 96.7829 19.9009 98.8668 19.9009C99.9942 19.9009 101.171 19.5687 102.154 18.9316C102.44 18.746 102.848 18.8883 102.914 19.2229C102.956 19.4309 103.138 19.5807 103.35 19.5807H104.903C105.455 19.5807 105.903 19.133 105.903 18.5807V12.3889C105.903 10.0737 106.05 6.9457 101.343 6.9457ZM99.7984 17.4133C98.8913 17.4133 98.3029 16.9454 98.3029 16.2065C98.3029 15.0328 99.6223 14.4616 101.344 14.2339C101.913 14.1586 102.397 14.6207 102.397 15.1949V15.7144C102.397 15.9673 102.304 16.2143 102.117 16.3844C101.441 16.999 100.592 17.4133 99.7984 17.4133Z" fill="#ECECEC"/>
<path d="M121.548 8.26588C121.548 7.7136 121.1 7.26588 120.548 7.26588H116.93C116.822 7.26588 116.715 7.24765 116.612 7.21653C115.991 7.02953 115.309 6.9457 114.585 6.9457C111.447 6.9457 109.094 8.76829 109.094 11.5022C109.094 12.2978 109.282 13.0042 109.637 13.6064C109.923 14.0903 109.927 14.7238 109.589 15.1732C109.114 15.8072 108.922 16.3763 108.922 16.9454C108.922 17.2117 108.966 17.4506 109.047 17.666C109.316 18.3792 109.387 19.3773 108.942 19.9961C108.55 20.542 108.407 21.0964 108.407 21.6004C108.407 24.0633 111.447 25.418 114.708 25.418C117.773 25.418 120.739 23.9894 120.739 21.2309C120.739 18.2754 116.988 17.5611 114.316 17.167C112.771 16.9454 111.741 16.7237 111.741 16.1818C111.741 16.1408 111.747 16.0984 111.759 16.0543C111.858 15.6939 112.328 15.6537 112.69 15.7449C113.274 15.8918 113.909 15.9602 114.585 15.9602C117.748 15.9602 119.93 14.2607 119.93 11.5022C119.93 11.3477 119.924 11.1951 119.912 11.0452C119.867 10.5145 120.249 9.97515 120.782 9.97515C121.205 9.97515 121.548 9.63211 121.548 9.20895V8.26588ZM114.61 13.4726C113.261 13.4726 112.281 12.709 112.281 11.4283C112.281 10.1968 113.237 9.43329 114.561 9.43329C115.885 9.43329 116.865 10.1968 116.865 11.4776C116.865 12.7337 115.934 13.4726 114.61 13.4726ZM117.282 21.2802C117.282 22.4131 116.032 22.9304 114.634 22.9304C113.188 22.9304 111.79 22.3885 111.79 21.2555C111.79 20.831 112.045 20.3515 112.665 19.8645C112.868 19.7052 113.133 19.6556 113.389 19.6906C113.526 19.7094 113.664 19.7281 113.801 19.7531C115.689 20.0241 117.282 20.2704 117.282 21.2802Z" fill="#ECECEC"/>
<path d="M128.533 6.9457C125.395 6.9457 122.722 9.187 122.722 13.4479C122.722 17.9059 125.689 19.9255 128.95 19.9255C130.167 19.9255 131.511 19.7359 132.501 19.4072C132.909 19.272 133.126 18.8509 133.065 18.4257L132.974 17.782C132.884 17.1497 132.229 16.7594 131.605 16.8925C131.015 17.0182 130.398 17.0931 129.857 17.0931C128.414 17.0931 127.229 16.5322 126.564 15.4433C126.231 14.896 126.715 14.2853 127.356 14.2853H133.03C133.54 14.2853 133.974 13.9003 133.992 13.3905C134.131 9.60001 132.357 6.9457 128.533 6.9457ZM128.557 9.58107C129.529 9.58107 130.216 10.0822 130.542 11.0626C130.725 11.614 130.244 12.1179 129.663 12.1179H127.288C126.661 12.1179 126.176 11.5348 126.464 10.9783C126.898 10.1412 127.616 9.58107 128.557 9.58107Z" fill="#ECECEC"/>
<defs>
<linearGradient id="paint0_linear_247_2610" x1="19.712" y1="-0.418604" x2="-4.01493" y2="22.9179" gradientUnits="userSpaceOnUse">
<stop stop-color="#3CFA64"/>
<stop offset="0.478241" stop-color="#1293E6"/>
<stop offset="1" stop-color="#9016F0"/>
</linearGradient>
</defs>
</svg>
