<svg width="83" height="112" viewBox="0 0 83 112" fill="none" xmlns="http://www.w3.org/2000/svg">
<path fill-rule="evenodd" clip-rule="evenodd" d="M6.37369 94.3158C3.12974 94.3158 0.5 91.6766 0.5 88.4211V23.5789C0.5 20.3234 3.12974 17.6842 6.37369 17.6842H10.0447C13.2887 17.6842 15.9184 15.045 15.9184 11.7895V5.89474C15.9184 2.63916 18.5482 0 21.7921 0H61.4395C64.6834 0 67.3132 2.63916 67.3132 5.89474V11.7895C67.3132 15.045 69.9429 17.6842 73.1869 17.6842H76.8579C80.1019 17.6842 82.7316 20.3234 82.7316 23.5789V88.4211C82.7316 91.6766 80.1019 94.3158 76.8579 94.3158H73.1869C69.9429 94.3158 67.3132 96.955 67.3132 100.211V106.105C67.3132 109.361 64.6834 112 61.4395 112H21.7921C18.5482 112 15.9184 109.361 15.9184 106.105V100.211C15.9184 96.955 13.2887 94.3158 10.0447 94.3158H6.37369ZM65.1106 23.5789C65.1106 20.3234 62.4808 17.6842 59.2369 17.6842H23.9947C20.7508 17.6842 18.1211 20.3234 18.1211 23.5789V88.4211C18.1211 91.6766 20.7508 94.3158 23.9947 94.3158H59.2369C62.4808 94.3158 65.1106 91.6766 65.1106 88.4211V23.5789Z" fill="black"/>
<path fill-rule="evenodd" clip-rule="evenodd" d="M6.37369 94.3158C3.12974 94.3158 0.5 91.6766 0.5 88.4211V23.5789C0.5 20.3234 3.12974 17.6842 6.37369 17.6842H10.0447C13.2887 17.6842 15.9184 15.045 15.9184 11.7895V5.89474C15.9184 2.63916 18.5482 0 21.7921 0H61.4395C64.6834 0 67.3132 2.63916 67.3132 5.89474V11.7895C67.3132 15.045 69.9429 17.6842 73.1869 17.6842H76.8579C80.1019 17.6842 82.7316 20.3234 82.7316 23.5789V88.4211C82.7316 91.6766 80.1019 94.3158 76.8579 94.3158H73.1869C69.9429 94.3158 67.3132 96.955 67.3132 100.211V106.105C67.3132 109.361 64.6834 112 61.4395 112H21.7921C18.5482 112 15.9184 109.361 15.9184 106.105V100.211C15.9184 96.955 13.2887 94.3158 10.0447 94.3158H6.37369ZM65.1106 23.5789C65.1106 20.3234 62.4808 17.6842 59.2369 17.6842H23.9947C20.7508 17.6842 18.1211 20.3234 18.1211 23.5789V88.4211C18.1211 91.6766 20.7508 94.3158 23.9947 94.3158H59.2369C62.4808 94.3158 65.1106 91.6766 65.1106 88.4211V23.5789Z" fill="url(#paint0_linear_351_1760)"/>
<defs>
<linearGradient id="paint0_linear_351_1760" x1="82.7316" y1="-1.73643" x2="-15.6991" y2="95.6226" gradientUnits="userSpaceOnUse">
<stop stop-color="#3CFA64"/>
<stop offset="0.478241" stop-color="#1293E6"/>
<stop offset="1" stop-color="#9016F0"/>
</linearGradient>
</defs>
</svg>
