<svg width="398" height="40" viewBox="0 0 398 40" fill="none" xmlns="http://www.w3.org/2000/svg">
<g clip-path="url(#clip0_247_2137)">
<path fill-rule="evenodd" clip-rule="evenodd" d="M205.88 16.669C205.88 14.1751 206.564 11.7916 208.413 10.0213C210.272 8.24099 213.392 7.00049 218.421 7.00049H220.559C226.016 7.00049 229.128 8.48061 230.883 10.4483C232.641 12.419 233.135 14.986 233.135 17.3875V18.2077H212.363L212.496 18.9035C212.752 20.2419 213.423 21.3772 214.629 22.1609C215.815 22.931 217.475 23.3358 219.683 23.3358H219.718C222.374 23.3358 223.992 22.7947 224.978 22.1269C225.672 21.6565 226.038 21.133 226.223 20.7267H233.006C232.902 21.9074 232.425 23.3766 230.982 24.6264C229.289 26.0933 226.197 27.3207 220.63 27.3207H218.631C213.676 27.3207 210.499 26.0723 208.566 24.2625C206.644 22.4622 205.88 20.0375 205.88 17.5009V16.669ZM219.437 10.5694C217.43 10.5694 215.908 10.8963 214.794 11.5524C213.657 12.2215 212.983 13.2105 212.648 14.4238L212.442 15.1681H226.48L226.302 14.4419C226.002 13.2124 225.321 12.2193 224.171 11.5509C223.044 10.896 221.497 10.5694 219.473 10.5694H219.437Z" fill="white"/>
<path fill-rule="evenodd" clip-rule="evenodd" d="M272.732 16.6312C272.732 14.1434 273.56 11.7683 275.277 10.0135C276.993 8.25954 279.647 7.07617 283.379 7.07617H283.905C289.25 7.07617 291.747 9.308 292.501 10.1207L293.417 11.109V7.56774H300.197V26.7535H293.487V22.282L292.504 23.8728C292.049 24.609 289.557 27.2451 284.221 27.2451H283.73C279.852 27.2451 277.112 26.0585 275.346 24.2641C273.58 22.4704 272.732 20.0131 272.732 17.3497V16.6312ZM286.009 11.2501C283.664 11.2501 282.053 11.9639 281.031 13.0988C280.014 14.2283 279.652 15.6943 279.652 17.0472V17.1984C279.652 18.5078 280.101 19.9738 281.154 21.114C282.213 22.2622 283.84 23.0334 286.113 23.0334H286.289C290.693 23.0334 293.417 20.1112 293.417 17.1984V17.0472C293.417 14.0387 290.565 11.2501 286.184 11.2501H286.009Z" fill="white"/>
<path d="M174.112 26.7534L166.738 7.56763H173.691L178.385 21.7284L183.003 7.56763H190.451L195.222 21.7284L199.764 7.56763H205.891L199.014 26.7534H191.481L186.48 12.2056L181.479 26.7534H174.112Z" fill="white"/>
<path d="M240.277 26.7534L232.904 7.56763H239.856L244.551 21.7284L249.169 7.56763H256.617L261.388 21.7284L265.93 7.56763H272.057L265.179 26.7534H257.647L252.645 12.2056L247.644 26.7534H240.277Z" fill="white"/>
<path d="M311.125 25.3248L302.525 7.56763H309.714L316.126 22.1175L322.352 7.56763H329L319.496 28.4326L319.495 28.4355C318.611 30.3219 317.767 31.6703 316.769 32.5515C315.79 33.4153 314.627 33.8622 313.033 33.8622H306.733V28.9699H310.614C311.003 28.9699 311.383 28.9168 311.666 28.6905C311.998 28.4242 312.062 28.0394 312.062 27.7482C312.062 27.3991 311.933 27.0499 311.783 26.7069C311.679 26.4689 311.54 26.1822 311.377 25.8459C311.298 25.6845 311.214 25.5117 311.126 25.3273L311.125 25.3248Z" fill="white"/>
<path fill-rule="evenodd" clip-rule="evenodd" d="M149.309 8.43092C150.042 9.22115 150.042 10.5024 149.309 11.2926L135.247 26.4584C134.515 27.2486 133.327 27.2486 132.594 26.4584C131.862 25.6682 131.862 24.387 132.594 23.5967L146.656 8.43092C147.388 7.6407 148.577 7.6407 149.309 8.43092Z" fill="#48D1CC"/>
<path fill-rule="evenodd" clip-rule="evenodd" d="M111.35 8.43092C110.617 9.22115 110.617 10.5024 111.35 11.2926L125.411 26.4584C126.144 27.2486 127.332 27.2486 128.065 26.4584C128.797 25.6682 128.797 24.387 128.065 23.5967L114.003 8.43093C113.271 7.6407 112.083 7.6407 111.35 8.43092Z" fill="#48D1CC"/>
<path fill-rule="evenodd" clip-rule="evenodd" d="M106.82 8.43092C107.553 9.22115 107.553 10.5024 106.82 11.2926L92.759 26.4584C92.0263 27.2486 90.8384 27.2486 90.1057 26.4584C89.373 25.6682 89.373 24.387 90.1057 23.5967L104.167 8.43092C104.9 7.6407 106.088 7.6407 106.82 8.43092Z" fill="#48D1CC"/>
<path fill-rule="evenodd" clip-rule="evenodd" d="M68.8633 8.43092C68.1306 9.22115 68.1306 10.5024 68.8633 11.2926L82.9246 26.4584C83.6573 27.2486 84.8452 27.2486 85.5779 26.4584C86.3106 25.6682 86.3106 24.387 85.5779 23.5967L71.5165 8.43093C70.7839 7.6407 69.596 7.6407 68.8633 8.43092Z" fill="#48D1CC"/>
</g>
<defs>
<clipPath id="clip0_247_2137">
<rect width="261" height="27" fill="white" transform="translate(68 7)"/>
</clipPath>
</defs>
</svg>
