<svg width="560" height="112" viewBox="0 0 560 112" fill="none" xmlns="http://www.w3.org/2000/svg">
<path fill-rule="evenodd" clip-rule="evenodd" d="M6.37369 94.3158C3.12974 94.3158 0.5 91.6766 0.5 88.4211V23.5789C0.5 20.3234 3.12974 17.6842 6.37369 17.6842H10.0447C13.2887 17.6842 15.9184 15.045 15.9184 11.7895V5.89474C15.9184 2.63916 18.5482 0 21.7921 0H61.4395C64.6834 0 67.3132 2.63916 67.3132 5.89474V11.7895C67.3132 15.045 69.9429 17.6842 73.1869 17.6842H76.8579C80.1019 17.6842 82.7316 20.3234 82.7316 23.5789V88.4211C82.7316 91.6766 80.1019 94.3158 76.8579 94.3158H73.1869C69.9429 94.3158 67.3132 96.955 67.3132 100.211V106.105C67.3132 109.361 64.6834 112 61.4395 112H21.7921C18.5482 112 15.9184 109.361 15.9184 106.105V100.211C15.9184 96.955 13.2887 94.3158 10.0447 94.3158H6.37369ZM65.1106 23.5789C65.1106 20.3234 62.4808 17.6842 59.2369 17.6842H23.9947C20.7508 17.6842 18.1211 20.3234 18.1211 23.5789V88.4211C18.1211 91.6766 20.7508 94.3158 23.9947 94.3158H59.2369C62.4808 94.3158 65.1106 91.6766 65.1106 88.4211V23.5789Z" fill="black"/>
<path fill-rule="evenodd" clip-rule="evenodd" d="M6.37369 94.3158C3.12974 94.3158 0.5 91.6766 0.5 88.4211V23.5789C0.5 20.3234 3.12974 17.6842 6.37369 17.6842H10.0447C13.2887 17.6842 15.9184 15.045 15.9184 11.7895V5.89474C15.9184 2.63916 18.5482 0 21.7921 0H61.4395C64.6834 0 67.3132 2.63916 67.3132 5.89474V11.7895C67.3132 15.045 69.9429 17.6842 73.1869 17.6842H76.8579C80.1019 17.6842 82.7316 20.3234 82.7316 23.5789V88.4211C82.7316 91.6766 80.1019 94.3158 76.8579 94.3158H73.1869C69.9429 94.3158 67.3132 96.955 67.3132 100.211V106.105C67.3132 109.361 64.6834 112 61.4395 112H21.7921C18.5482 112 15.9184 109.361 15.9184 106.105V100.211C15.9184 96.955 13.2887 94.3158 10.0447 94.3158H6.37369ZM65.1106 23.5789C65.1106 20.3234 62.4808 17.6842 59.2369 17.6842H23.9947C20.7508 17.6842 18.1211 20.3234 18.1211 23.5789V88.4211C18.1211 91.6766 20.7508 94.3158 23.9947 94.3158H59.2369C62.4808 94.3158 65.1106 91.6766 65.1106 88.4211V23.5789Z" fill="url(#paint0_linear_351_1759)"/>
<path d="M151.414 36.8136C151.556 36.596 151.608 36.3317 151.558 36.0766L150.565 30.9497C150.474 30.4795 150.062 30.14 149.583 30.14H113.566C113.014 30.14 112.566 30.5877 112.566 31.14V40.3784C112.566 40.9307 113.014 41.3784 113.566 41.3784H130.564C131.357 41.3784 131.835 42.2588 131.402 42.924L110.944 74.349C110.804 74.5647 110.752 74.8262 110.799 75.0791L111.8 80.4082C111.888 80.8811 112.301 81.2238 112.782 81.2238H150.329C150.881 81.2238 151.329 80.7761 151.329 80.2238V70.9853C151.329 70.433 150.881 69.9853 150.329 69.9853H131.596C130.802 69.9853 130.324 69.1036 130.759 68.4385L151.414 36.8136Z" fill="#ECECEC"/>
<path d="M181.625 28.8118C168.533 28.8118 157.385 38.109 157.385 55.784C157.385 74.2764 169.761 82.6541 183.363 82.6541C189.38 82.6541 196.134 81.5502 200.304 79.6916C200.697 79.5163 200.914 79.0971 200.853 78.6708L199.596 69.8844C199.506 69.2533 198.856 68.8665 198.25 69.063C194.838 70.169 190.624 70.9048 187.148 70.9048C179.699 70.9048 173.897 67.34 171.819 60.4698C171.633 59.8557 172.11 59.2577 172.752 59.2577H203.229C203.739 59.2577 204.169 58.8698 204.216 58.362C205.819 41.1529 198.515 28.8118 181.625 28.8118ZM181.727 39.7437C186.764 39.7437 189.966 42.9516 190.725 49.1939C190.795 49.7708 190.334 50.267 189.753 50.267H172.605C171.978 50.267 171.504 49.6954 171.659 49.0879C173.027 43.7424 176.576 39.7437 181.727 39.7437Z" fill="#ECECEC"/>
<path d="M247.644 29.8747C247.68 29.2988 247.223 28.8096 246.646 28.8409C241.25 29.134 235.314 31.6273 229.97 35.9216C229.357 36.4143 228.421 36.0771 228.296 35.3005L227.596 30.9801C227.518 30.4958 227.1 30.14 226.609 30.14H215.88C215.328 30.14 214.88 30.5877 214.88 31.14V80.2238C214.88 80.7761 215.328 81.2238 215.88 81.2238H228.403C228.956 81.2238 229.403 80.7761 229.403 80.2238V48.3423C229.403 48.0123 229.565 47.7019 229.843 47.5236C234.93 44.258 241.648 43.5214 245.853 43.4318C246.381 43.4206 246.816 43.0115 246.849 42.4846L247.644 29.8747Z" fill="#ECECEC"/>
<path d="M277.834 28.8118C261.981 28.8118 252.47 40.4589 252.47 55.6819C252.47 71.007 261.879 82.552 277.834 82.552C293.789 82.552 303.301 71.007 303.301 55.6819C303.301 40.4589 293.789 28.8118 277.834 28.8118ZM277.834 39.948C284.38 39.948 288.675 45.6694 288.675 55.6819C288.675 65.5921 284.38 71.4157 277.834 71.4157C271.288 71.4157 267.095 65.5921 267.095 55.6819C267.095 45.6694 271.288 39.948 277.834 39.948Z" fill="#ECECEC"/>
<path d="M330.153 28.8118C317.368 28.8118 309.595 34.3288 309.595 43.7283C309.595 51.1865 314.095 54.8645 325.346 60.5859C332.505 64.0596 335.062 65.49 335.062 68.1463C335.062 70.9048 332.505 72.0287 328.414 72.0287C324.082 72.0287 317.841 70.3825 313.127 68.2869C312.526 68.02 311.823 68.3702 311.697 69.015L309.965 77.8312C309.87 78.314 310.141 78.7949 310.604 78.9598C317.51 81.4154 323.312 82.552 328.925 82.552C341.403 82.552 348.971 77.0349 348.971 67.942C348.971 59.9729 343.142 54.7624 331.073 48.9388C326.062 46.6911 323.198 45.4651 323.198 43.2174C323.198 40.3567 325.857 39.335 330.153 39.335C334.581 39.335 339.924 40.6649 343.63 42.0501C344.226 42.2727 344.888 41.9141 345.006 41.2892L346.751 31.9896C346.849 31.4678 346.523 30.9598 346.005 30.8393C340.456 29.5456 334.707 28.8118 330.153 28.8118Z" fill="#ECECEC"/>
<path d="M389.149 70.8368C389.05 70.2294 388.43 69.8569 387.837 70.0209C385.559 70.651 383.605 70.8027 382.107 70.8027C377.096 70.8027 375.459 67.2268 375.459 59.4621V42.3784C375.459 41.8261 375.907 41.3784 376.459 41.3784H388.471C389.023 41.3784 389.471 40.9307 389.471 40.3784V31.14C389.471 30.5877 389.023 30.14 388.471 30.14H376.459C375.907 30.14 375.459 29.6922 375.459 29.14V18.2605C375.459 17.6367 374.894 17.1651 374.28 17.2766L361.655 19.5697C361.179 19.6561 360.834 20.0702 360.834 20.5536V29.14C360.834 29.6922 360.386 30.14 359.834 30.14H355.288C354.736 30.14 354.288 30.5877 354.288 31.14V40.3784C354.288 40.9307 354.736 41.3784 355.288 41.3784H359.834C360.386 41.3784 360.834 41.8261 360.834 42.3784V59.0534C360.834 74.9915 365.948 82.552 377.709 82.552C381.769 82.552 385.463 82.0957 389.914 80.5796C390.37 80.4243 390.642 79.9598 390.564 79.4846L389.149 70.8368Z" fill="#ECECEC"/>
<path d="M423.267 28.8118C417.653 28.8118 410.711 29.6644 402.899 31.6434C402.389 31.7726 402.07 32.2781 402.169 32.7948L403.93 42.0111C404.042 42.5989 404.642 42.9566 405.216 42.7861C410.783 41.1314 416.964 40.0502 420.71 40.0502C426.847 40.0502 427.602 42.831 427.66 49.0108C427.665 49.5419 427.247 49.9827 426.717 50.0163C410.264 51.0589 396.675 55.8002 396.675 67.329C396.675 77.4436 404.243 82.552 412.937 82.552C418.113 82.552 423.541 80.8826 427.86 77.6949C428.476 77.2402 429.385 77.5556 429.535 78.3064L429.958 80.4201C430.052 80.8874 430.462 81.2238 430.939 81.2238H441.29C441.842 81.2238 442.29 80.7761 442.29 80.2238V51.3908C442.29 41.7871 442.903 28.8118 423.267 28.8118ZM416.823 72.233C413.039 72.233 410.584 70.2918 410.584 67.2268C410.584 61.6272 417.866 59.3337 426.609 58.7115C427.181 58.6707 427.664 59.1277 427.664 59.7018V66.423C427.664 66.6769 427.569 66.922 427.391 67.1038C424.45 70.1196 420.493 72.233 416.823 72.233Z" fill="#ECECEC"/>
<path d="M507.555 31.14C507.555 30.5877 507.107 30.14 506.555 30.14H487.774C487.666 30.14 487.56 30.1225 487.458 30.0893C484.736 29.2054 481.721 28.8118 478.509 28.8118C465.418 28.8118 455.599 36.3722 455.599 47.7128C455.599 52.2327 457.076 56.0584 459.79 59.0297C460.17 59.4462 460.173 60.093 459.78 60.498C456.234 64.1565 454.883 67.2242 454.883 70.2918C454.883 73.4617 456.393 75.6976 458.751 77.3611C459.375 77.8018 459.402 78.7658 458.784 79.2158C454.182 82.5674 452.735 86.3395 452.735 89.6015C452.735 99.8183 465.418 105.437 479.02 105.437C491.805 105.437 504.18 99.5118 504.18 88.069C504.18 75.8089 488.532 72.846 477.384 71.2113C470.941 70.2918 466.645 69.3723 466.645 67.1246C466.645 66.5105 466.947 65.8211 467.744 64.9917C468.002 64.7235 468.397 64.6523 468.75 64.7709C471.676 65.7552 474.958 66.2051 478.509 66.2051C491.702 66.2051 500.805 59.1556 500.805 47.7128C500.805 45.9812 500.623 44.3102 500.212 42.7466C500.035 42.0735 500.521 41.3784 501.217 41.3784H506.555C507.107 41.3784 507.555 40.9307 507.555 40.3784V31.14ZM478.611 55.8862C472.986 55.8862 468.895 52.719 468.895 47.4063C468.895 42.2979 472.884 39.1307 478.407 39.1307C483.93 39.1307 488.021 42.2979 488.021 47.6106C488.021 52.8212 484.134 55.8862 478.611 55.8862ZM489.759 88.2733C489.759 92.973 484.543 95.1186 478.713 95.1186C472.679 95.1186 466.85 92.8709 466.85 88.1712C466.85 86.1923 468.192 83.9259 471.529 81.6504C471.741 81.5058 472.002 81.4545 472.255 81.4958C473.249 81.6577 474.242 81.7585 475.236 81.9389C483.111 83.0628 489.759 84.0845 489.759 88.2733Z" fill="#ECECEC"/>
<path d="M536.692 28.8118C523.601 28.8118 512.453 38.109 512.453 55.784C512.453 74.2764 524.829 82.6541 538.431 82.6541C544.448 82.6541 551.202 81.5502 555.372 79.6916C555.765 79.5163 555.981 79.0971 555.92 78.6708L554.664 69.8844C554.574 69.2533 553.924 68.8665 553.318 69.063C549.905 70.169 545.692 70.9048 542.215 70.9048C534.766 70.9048 528.965 67.34 526.887 60.4698C526.701 59.8557 527.178 59.2577 527.82 59.2577H558.297C558.807 59.2577 559.237 58.8698 559.284 58.362C560.887 41.1529 553.583 28.8118 536.692 28.8118ZM536.795 39.7437C541.832 39.7437 545.034 42.9516 545.793 49.1939C545.863 49.7708 545.402 50.267 544.821 50.267H527.673C527.046 50.267 526.572 49.6954 526.727 49.0879C528.095 43.7424 531.644 39.7437 536.795 39.7437Z" fill="#ECECEC"/>
<defs>
<linearGradient id="paint0_linear_351_1759" x1="82.7316" y1="-1.73643" x2="-15.6991" y2="95.6226" gradientUnits="userSpaceOnUse">
<stop stop-color="#3CFA64"/>
<stop offset="0.478241" stop-color="#1293E6"/>
<stop offset="1" stop-color="#9016F0"/>
</linearGradient>
</defs>
</svg>
